<?xml version="1.0" encoding="UTF-8" standalone="no"?><svg xmlns="http://www.w3.org/2000/svg" xmlns:xlink="http://www.w3.org/1999/xlink" contentScriptType="application/ecmascript" contentStyleType="text/css" height="255px" preserveAspectRatio="none" style="width:365px;height:255px;" version="1.1" viewBox="0 0 365 255" width="365px" zoomAndPan="magnify"><defs><filter height="300%" id="ft0e3tiqeaxbn" width="300%" x="-1" y="-1"><feGaussianBlur result="blurOut" stdDeviation="2.0"/><feColorMatrix in="blurOut" result="blurOut2" type="matrix" values="0 0 0 0 0 0 0 0 0 0 0 0 0 0 0 0 0 0 .4 0"/><feOffset dx="4.0" dy="4.0" in="blurOut2" result="blurOut3"/><feBlend in="SourceGraphic" in2="blurOut3" mode="normal"/></filter></defs><g><!--MD5=[f4bb7482f6789a68c7093a8c4986074e]
class nz.ac.vuw.ecs.swen225.gp30.application.Controls--><a href="Controls.html" target="_top" title="Controls.html" xlink:actuate="onRequest" xlink:href="Controls.html" xlink:show="new" xlink:title="Controls.html" xlink:type="simple"><rect codeLine="5" fill="#FEFECE" filter="url(#ft0e3tiqeaxbn)" height="89.6953" id="nz.ac.vuw.ecs.swen225.gp30.application.Controls" style="stroke: #A80036; stroke-width: 1.5;" width="222" x="42" y="129"/><ellipse cx="57" cy="149.0938" fill="#ADD1B2" rx="11" ry="11" style="stroke: #A80036; stroke-width: 1.0;"/><path d="M59.7656,144.9688 Q59.9219,144.75 60.1094,144.6406 Q60.2969,144.5313 60.5156,144.5313 Q60.8906,144.5313 61.125,144.7969 Q61.3594,145.0469 61.3594,145.6563 L61.3594,147.1094 Q61.3594,147.7188 61.125,147.9844 Q60.8906,148.25 60.5156,148.25 Q60.1719,148.25 59.9688,148.0469 Q59.7656,147.8594 59.6563,147.3438 Q59.6094,146.9844 59.4219,146.7969 Q59.0938,146.4219 58.4844,146.2031 Q57.875,145.9844 57.25,145.9844 Q56.4844,145.9844 55.8438,146.3125 Q55.2188,146.6406 54.7188,147.3906 Q54.2344,148.1406 54.2344,149.1719 L54.2344,150.2656 Q54.2344,151.5 55.125,152.3281 Q56.0156,153.1406 57.6094,153.1406 Q58.5469,153.1406 59.2031,152.8906 Q59.5938,152.7344 60.0156,152.2969 Q60.2813,152.0313 60.4219,151.9531 Q60.5781,151.875 60.7813,151.875 Q61.1094,151.875 61.3594,152.1406 Q61.625,152.3906 61.625,152.7344 Q61.625,153.0781 61.2813,153.4844 Q60.7813,154.0625 59.9844,154.3906 Q58.9063,154.8438 57.6094,154.8438 Q56.0938,154.8438 54.8906,154.2188 Q53.9063,153.7188 53.2188,152.6563 Q52.5313,151.5781 52.5313,150.2969 L52.5313,149.1406 Q52.5313,147.8125 53.1406,146.6719 Q53.7656,145.5156 54.8594,144.9063 Q55.9531,144.2813 57.1875,144.2813 Q57.9219,144.2813 58.5625,144.4531 Q59.2188,144.6094 59.7656,144.9688 Z "/><text fill="#000000" font-family="sans-serif" font-size="14" lengthAdjust="spacingAndGlyphs" textLength="53" x="139.5" y="148.5332">Controls</text><text fill="#000000" font-family="sans-serif" font-size="10" lengthAdjust="spacingAndGlyphs" textLength="190" x="71" y="161.9902">nz.ac.vuw.ecs.swen225.gp30.application</text><line style="stroke: #A80036; stroke-width: 1.5;" x1="43" x2="263" y1="169.1875" y2="169.1875"/><ellipse cx="53" cy="180.1875" fill="#84BE84" rx="3" ry="3" style="stroke: #038048; stroke-width: 1.0;"/><text fill="#000000" font-family="sans-serif" font-size="11" lengthAdjust="spacingAndGlyphs" textLength="129" x="62" y="184.6064">Controls(ChapsChallenge)</text><ellipse cx="53" cy="194.0234" fill="#84BE84" rx="3" ry="3" style="stroke: #038048; stroke-width: 1.0;"/><text fill="#000000" font-family="sans-serif" font-size="11" lengthAdjust="spacingAndGlyphs" textLength="140" x="62" y="198.4424">keyPressed(KeyEvent): void</text><ellipse cx="53" cy="207.8594" fill="#84BE84" rx="3" ry="3" style="stroke: #038048; stroke-width: 1.0;"/><text fill="#000000" font-family="sans-serif" font-size="11" lengthAdjust="spacingAndGlyphs" textLength="172" x="62" y="212.2783">actionPerformed(ActionEvent): void</text></a><!--MD5=[e348c711242cba1fe7b19c0951d2022e]
class java.awt.event.KeyAdapter--><rect codeLine="11" fill="#FEFECE" filter="url(#ft0e3tiqeaxbn)" height="40.1875" id="java.awt.event.KeyAdapter" style="stroke: #A80036; stroke-width: 1.5;" width="106" x="7" y="18"/><ellipse cx="22" cy="38.0938" fill="#A9DCDF" rx="11" ry="11" style="stroke: #A80036; stroke-width: 1.0;"/><path d="M24.1875,39.8594 L20.0469,39.8594 L19.625,40.8906 L20.0469,40.8906 Q20.6563,40.8906 20.9219,41.125 Q21.1875,41.3594 21.1875,41.75 Q21.1875,42.125 20.9219,42.3594 Q20.6563,42.5938 20.0469,42.5938 L17.75,42.5938 Q17.1406,42.5938 16.8906,42.3594 Q16.625,42.125 16.625,41.7344 Q16.625,41.3594 16.9063,41.125 Q17.1719,40.875 17.7969,40.8906 L20.4688,34.2344 L19.3594,34.2344 Q18.75,34.2344 18.4844,34 Q18.2188,33.7656 18.2188,33.375 Q18.2188,33 18.4844,32.7656 Q18.75,32.5313 19.3594,32.5313 L23.0313,32.5313 L26.4219,40.8906 Q27.0156,40.8906 27.2031,41.0313 Q27.5938,41.2969 27.5938,41.75 Q27.5938,42.125 27.3281,42.3594 Q27.0781,42.5938 26.4688,42.5938 L24.1719,42.5938 Q23.5625,42.5938 23.2969,42.3594 Q23.0313,42.125 23.0313,41.7344 Q23.0313,41.3594 23.2969,41.125 Q23.5625,40.8906 24.1719,40.8906 L24.5938,40.8906 L24.1875,39.8594 Z M23.4688,38.1563 L22.1094,34.7813 L20.7344,38.1563 L23.4688,38.1563 Z "/><text fill="#000000" font-family="sans-serif" font-size="14" font-style="italic" lengthAdjust="spacingAndGlyphs" textLength="74" x="36" y="37.5332">KeyAdapter</text><text fill="#000000" font-family="sans-serif" font-size="10" font-style="italic" lengthAdjust="spacingAndGlyphs" textLength="67" x="39.5" y="50.9902">java.awt.event</text><!--MD5=[6631281fcee7fc541b441b6c950a0fa0]
class java.awt.event.ActionListener--><rect codeLine="12" fill="#FEFECE" filter="url(#ft0e3tiqeaxbn)" height="62.0234" id="java.awt.event.ActionListener" style="stroke: #A80036; stroke-width: 1.5;" width="198" x="148" y="7"/><ellipse cx="197.75" cy="27.0938" fill="#B4A7E5" rx="11" ry="11" style="stroke: #A80036; stroke-width: 1.0;"/><path d="M198.7031,23.7344 L198.7031,30.3906 L200.4219,30.3906 Q201.0313,30.3906 201.2969,30.625 Q201.5625,30.8594 201.5625,31.25 Q201.5625,31.625 201.2969,31.8594 Q201.0313,32.0938 200.4219,32.0938 L195.2813,32.0938 Q194.6719,32.0938 194.4063,31.8594 Q194.1406,31.625 194.1406,31.2344 Q194.1406,30.8594 194.4063,30.625 Q194.6719,30.3906 195.2813,30.3906 L197,30.3906 L197,23.7344 L195.2813,23.7344 Q194.6719,23.7344 194.4063,23.5 Q194.1406,23.2656 194.1406,22.875 Q194.1406,22.5 194.4063,22.2656 Q194.6719,22.0313 195.2813,22.0313 L200.4219,22.0313 Q201.0313,22.0313 201.2969,22.2656 Q201.5625,22.5 201.5625,22.875 Q201.5625,23.2656 201.2969,23.5 Q201.0313,23.7344 200.4219,23.7344 L198.7031,23.7344 Z "/><text fill="#000000" font-family="sans-serif" font-size="14" font-style="italic" lengthAdjust="spacingAndGlyphs" textLength="90" x="218.25" y="26.5332">ActionListener</text><text fill="#000000" font-family="sans-serif" font-size="10" font-style="italic" lengthAdjust="spacingAndGlyphs" textLength="67" x="229.75" y="39.9902">java.awt.event</text><line style="stroke: #A80036; stroke-width: 1.5;" x1="149" x2="345" y1="47.1875" y2="47.1875"/><ellipse cx="159" cy="58.1875" fill="#84BE84" rx="3" ry="3" style="stroke: #038048; stroke-width: 1.0;"/><text fill="#000000" font-family="sans-serif" font-size="11" font-style="italic" lengthAdjust="spacingAndGlyphs" textLength="172" x="168" y="62.6064">actionPerformed(ActionEvent): void</text><!--MD5=[238a75d92453b91863b1e999078d9fdf]
reverse link java.awt.event.KeyAdapter to nz.ac.vuw.ecs.swen225.gp30.application.Controls--><path codeLine="16" d="M84.77,74.7 C96.33,91.35 110.21,111.34 122.41,128.93 " fill="none" id="java.awt.event.KeyAdapter-backto-nz.ac.vuw.ecs.swen225.gp30.application.Controls" style="stroke: #A80036; stroke-width: 1.0;"/><polygon fill="none" points="78.98,78.62,73.32,58.2,90.48,70.64,78.98,78.62" style="stroke: #A80036; stroke-width: 1.0;"/><!--MD5=[2bf57723cc57136a1b269b0a22803aa9]
reverse link java.awt.event.ActionListener to nz.ac.vuw.ecs.swen225.gp30.application.Controls--><path codeLine="17" d="M214.14,85.84 C204.36,99.78 193.68,115.01 184.02,128.78 " fill="none" id="java.awt.event.ActionListener-backto-nz.ac.vuw.ecs.swen225.gp30.application.Controls" style="stroke: #A80036; stroke-width: 1.0; stroke-dasharray: 7.0,7.0;"/><polygon fill="none" points="208.69,81.43,225.9,69.07,220.15,89.47,208.69,81.43" style="stroke: #A80036; stroke-width: 1.0;"/><text fill="#888888" font-family="sans-serif" font-size="10" lengthAdjust="spacingAndGlyphs" textLength="185" x="81" y="242.0762">UMLDoclet 2.0.12, PlantUML 1.2020.16</text><!--MD5=[58242d06c73eb6d775f4485adb9d9109]
@startuml
    set namespaceSeparator none
    hide empty fields
    hide empty methods

    class "<size:14>Controls\n<size:10>nz.ac.vuw.ecs.swen225.gp30.application" as nz.ac.vuw.ecs.swen225.gp30.application.Controls [[Controls.html]] {
        +Controls(ChapsChallenge)
        +keyPressed(KeyEvent): void
        +actionPerformed(ActionEvent): void
    }

    abstract class "<size:14>KeyAdapter\n<size:10>java.awt.event" as java.awt.event.KeyAdapter
    interface "<size:14>ActionListener\n<size:10>java.awt.event" as java.awt.event.ActionListener {
        {abstract} +actionPerformed(ActionEvent): void
    }

    java.awt.event.KeyAdapter <|- - nz.ac.vuw.ecs.swen225.gp30.application.Controls
    java.awt.event.ActionListener <|.. nz.ac.vuw.ecs.swen225.gp30.application.Controls

    center footer UMLDoclet 2.0.12, PlantUML 1.2020.16
@enduml

PlantUML version 1.2020.16(Mon Aug 24 08:20:43 NZST 2020)
(APACHE source distribution)
Java Runtime: Java(TM) SE Runtime Environment
JVM: Java HotSpot(TM) 64-Bit Server VM
Default Encoding: Cp1252
Language: en
Country: NZ
--></g></svg>