<?xml version="1.0" encoding="UTF-8" standalone="no"?><svg xmlns="http://www.w3.org/2000/svg" xmlns:xlink="http://www.w3.org/1999/xlink" contentScriptType="application/ecmascript" contentStyleType="text/css" height="302px" preserveAspectRatio="none" style="width:248px;height:302px;" version="1.1" viewBox="0 0 248 302" width="248px" zoomAndPan="magnify"><defs><filter height="300%" id="fu3fknxr8itz0" width="300%" x="-1" y="-1"><feGaussianBlur result="blurOut" stdDeviation="2.0"/><feColorMatrix in="blurOut" result="blurOut2" type="matrix" values="0 0 0 0 0 0 0 0 0 0 0 0 0 0 0 0 0 0 .4 0"/><feOffset dx="4.0" dy="4.0" in="blurOut2" result="blurOut3"/><feBlend in="SourceGraphic" in2="blurOut3" mode="normal"/></filter></defs><g><!--MD5=[dc6a10bde347a71376b4a901175e0e2c]
class nz.ac.vuw.ecs.swen225.gp30.application.GUI--><a href="GUI.html" target="_top" title="GUI.html" xlink:actuate="onRequest" xlink:href="GUI.html" xlink:show="new" xlink:title="GUI.html" xlink:type="simple"><rect codeLine="5" fill="#FEFECE" filter="url(#fu3fknxr8itz0)" height="158.875" id="nz.ac.vuw.ecs.swen225.gp30.application.GUI" style="stroke: #A80036; stroke-width: 1.5;" width="222" x="7" y="107"/><ellipse cx="22" cy="127.0938" fill="#ADD1B2" rx="11" ry="11" style="stroke: #A80036; stroke-width: 1.0;"/><path d="M24.7656,122.9688 Q24.9219,122.75 25.1094,122.6406 Q25.2969,122.5313 25.5156,122.5313 Q25.8906,122.5313 26.125,122.7969 Q26.3594,123.0469 26.3594,123.6563 L26.3594,125.1094 Q26.3594,125.7188 26.125,125.9844 Q25.8906,126.25 25.5156,126.25 Q25.1719,126.25 24.9688,126.0469 Q24.7656,125.8594 24.6563,125.3438 Q24.6094,124.9844 24.4219,124.7969 Q24.0938,124.4219 23.4844,124.2031 Q22.875,123.9844 22.25,123.9844 Q21.4844,123.9844 20.8438,124.3125 Q20.2188,124.6406 19.7188,125.3906 Q19.2344,126.1406 19.2344,127.1719 L19.2344,128.2656 Q19.2344,129.5 20.125,130.3281 Q21.0156,131.1406 22.6094,131.1406 Q23.5469,131.1406 24.2031,130.8906 Q24.5938,130.7344 25.0156,130.2969 Q25.2813,130.0313 25.4219,129.9531 Q25.5781,129.875 25.7813,129.875 Q26.1094,129.875 26.3594,130.1406 Q26.625,130.3906 26.625,130.7344 Q26.625,131.0781 26.2813,131.4844 Q25.7813,132.0625 24.9844,132.3906 Q23.9063,132.8438 22.6094,132.8438 Q21.0938,132.8438 19.8906,132.2188 Q18.9063,131.7188 18.2188,130.6563 Q17.5313,129.5781 17.5313,128.2969 L17.5313,127.1406 Q17.5313,125.8125 18.1406,124.6719 Q18.7656,123.5156 19.8594,122.9063 Q20.9531,122.2813 22.1875,122.2813 Q22.9219,122.2813 23.5625,122.4531 Q24.2188,122.6094 24.7656,122.9688 Z "/><text fill="#000000" font-family="sans-serif" font-size="14" lengthAdjust="spacingAndGlyphs" textLength="25" x="118.5" y="126.5332">GUI</text><text fill="#000000" font-family="sans-serif" font-size="10" lengthAdjust="spacingAndGlyphs" textLength="190" x="36" y="139.9902">nz.ac.vuw.ecs.swen225.gp30.application</text><line style="stroke: #A80036; stroke-width: 1.5;" x1="8" x2="228" y1="147.1875" y2="147.1875"/><ellipse cx="18" cy="158.1875" fill="#84BE84" rx="3" ry="3" style="stroke: #038048; stroke-width: 1.0;"/><text fill="#000000" font-family="sans-serif" font-size="11" lengthAdjust="spacingAndGlyphs" textLength="47" x="27" y="162.6064">init(): void</text><ellipse cx="18" cy="172.0234" fill="#84BE84" rx="3" ry="3" style="stroke: #038048; stroke-width: 1.0;"/><text fill="#000000" font-family="sans-serif" font-size="11" lengthAdjust="spacingAndGlyphs" textLength="92" x="27" y="176.4424">createMenu(): void</text><ellipse cx="18" cy="185.8594" fill="#84BE84" rx="3" ry="3" style="stroke: #038048; stroke-width: 1.0;"/><text fill="#000000" font-family="sans-serif" font-size="11" lengthAdjust="spacingAndGlyphs" textLength="193" x="27" y="190.2783">setActionListeners(ActionListener): void</text><ellipse cx="18" cy="199.6953" fill="#84BE84" rx="3" ry="3" style="stroke: #038048; stroke-width: 1.0;"/><text fill="#000000" font-family="sans-serif" font-size="11" lengthAdjust="spacingAndGlyphs" textLength="175" x="27" y="204.1143">getInventoryPanel(): InventoryPanel</text><ellipse cx="18" cy="213.5313" fill="#84BE84" rx="3" ry="3" style="stroke: #038048; stroke-width: 1.0;"/><text fill="#000000" font-family="sans-serif" font-size="11" lengthAdjust="spacingAndGlyphs" textLength="139" x="27" y="217.9502">setGamePanel(JPanel): void</text><ellipse cx="18" cy="227.3672" fill="#84BE84" rx="3" ry="3" style="stroke: #038048; stroke-width: 1.0;"/><text fill="#000000" font-family="sans-serif" font-size="11" lengthAdjust="spacingAndGlyphs" textLength="102" x="27" y="231.7861">setTimeLeft(int): void</text><ellipse cx="18" cy="241.2031" fill="#84BE84" rx="3" ry="3" style="stroke: #038048; stroke-width: 1.0;"/><text fill="#000000" font-family="sans-serif" font-size="11" lengthAdjust="spacingAndGlyphs" textLength="106" x="27" y="245.6221">setChipsLeft(int): void</text><ellipse cx="18" cy="255.0391" fill="#84BE84" rx="3" ry="3" style="stroke: #038048; stroke-width: 1.0;"/><text fill="#000000" font-family="sans-serif" font-size="11" lengthAdjust="spacingAndGlyphs" textLength="86" x="27" y="259.458">setLevel(int): void</text></a><!--MD5=[18a7562403221f513ca44e0f82c4c17a]
class javax.swing.JFrame--><rect codeLine="16" fill="#FEFECE" filter="url(#fu3fknxr8itz0)" height="40.1875" id="javax.swing.JFrame" style="stroke: #A80036; stroke-width: 1.5;" width="85" x="75.5" y="7"/><ellipse cx="90.5" cy="27.0938" fill="#ADD1B2" rx="11" ry="11" style="stroke: #A80036; stroke-width: 1.0;"/><path d="M93.2656,22.9688 Q93.4219,22.75 93.6094,22.6406 Q93.7969,22.5313 94.0156,22.5313 Q94.3906,22.5313 94.625,22.7969 Q94.8594,23.0469 94.8594,23.6563 L94.8594,25.1094 Q94.8594,25.7188 94.625,25.9844 Q94.3906,26.25 94.0156,26.25 Q93.6719,26.25 93.4688,26.0469 Q93.2656,25.8594 93.1563,25.3438 Q93.1094,24.9844 92.9219,24.7969 Q92.5938,24.4219 91.9844,24.2031 Q91.375,23.9844 90.75,23.9844 Q89.9844,23.9844 89.3438,24.3125 Q88.7188,24.6406 88.2188,25.3906 Q87.7344,26.1406 87.7344,27.1719 L87.7344,28.2656 Q87.7344,29.5 88.625,30.3281 Q89.5156,31.1406 91.1094,31.1406 Q92.0469,31.1406 92.7031,30.8906 Q93.0938,30.7344 93.5156,30.2969 Q93.7813,30.0313 93.9219,29.9531 Q94.0781,29.875 94.2813,29.875 Q94.6094,29.875 94.8594,30.1406 Q95.125,30.3906 95.125,30.7344 Q95.125,31.0781 94.7813,31.4844 Q94.2813,32.0625 93.4844,32.3906 Q92.4063,32.8438 91.1094,32.8438 Q89.5938,32.8438 88.3906,32.2188 Q87.4063,31.7188 86.7188,30.6563 Q86.0313,29.5781 86.0313,28.2969 L86.0313,27.1406 Q86.0313,25.8125 86.6406,24.6719 Q87.2656,23.5156 88.3594,22.9063 Q89.4531,22.2813 90.6875,22.2813 Q91.4219,22.2813 92.0625,22.4531 Q92.7188,22.6094 93.2656,22.9688 Z "/><text fill="#000000" font-family="sans-serif" font-size="14" lengthAdjust="spacingAndGlyphs" textLength="49" x="106.5" y="26.5332">JFrame</text><text fill="#000000" font-family="sans-serif" font-size="10" lengthAdjust="spacingAndGlyphs" textLength="53" x="104.5" y="39.9902">javax.swing</text><!--MD5=[bb8ec731946fb69c1ae23a889fe4b641]
reverse link javax.swing.JFrame to nz.ac.vuw.ecs.swen225.gp30.application.GUI--><path codeLine="18" d="M118,67.47 C118,79.54 118,93.28 118,107 " fill="none" id="javax.swing.JFrame-backto-nz.ac.vuw.ecs.swen225.gp30.application.GUI" style="stroke: #A80036; stroke-width: 1.0;"/><polygon fill="none" points="111,67.31,118,47.31,125,67.31,111,67.31" style="stroke: #A80036; stroke-width: 1.0;"/><text fill="#888888" font-family="sans-serif" font-size="10" lengthAdjust="spacingAndGlyphs" textLength="185" x="22.5" y="289.2559">UMLDoclet 2.0.12, PlantUML 1.2020.16</text><!--MD5=[85f54715c38696147c3bd87118010fb4]
@startuml
    set namespaceSeparator none
    hide empty fields
    hide empty methods

    class "<size:14>GUI\n<size:10>nz.ac.vuw.ecs.swen225.gp30.application" as nz.ac.vuw.ecs.swen225.gp30.application.GUI [[GUI.html]] {
        +init(): void
        +createMenu(): void
        +setActionListeners(ActionListener): void
        +getInventoryPanel(): InventoryPanel
        +setGamePanel(JPanel): void
        +setTimeLeft(int): void
        +setChipsLeft(int): void
        +setLevel(int): void
    }

    class "<size:14>JFrame\n<size:10>javax.swing" as javax.swing.JFrame

    javax.swing.JFrame <|- - nz.ac.vuw.ecs.swen225.gp30.application.GUI

    center footer UMLDoclet 2.0.12, PlantUML 1.2020.16
@enduml

PlantUML version 1.2020.16(Mon Aug 24 08:20:43 NZST 2020)
(APACHE source distribution)
Java Runtime: Java(TM) SE Runtime Environment
JVM: Java HotSpot(TM) 64-Bit Server VM
Default Encoding: Cp1252
Language: en
Country: NZ
--></g></svg>