<?xml version="1.0" encoding="UTF-8" standalone="no"?><svg xmlns="http://www.w3.org/2000/svg" xmlns:xlink="http://www.w3.org/1999/xlink" contentScriptType="application/ecmascript" contentStyleType="text/css" height="283px" preserveAspectRatio="none" style="width:343px;height:283px;" version="1.1" viewBox="0 0 343 283" width="343px" zoomAndPan="magnify"><defs><filter height="300%" id="fnuucwon4pbiz" width="300%" x="-1" y="-1"><feGaussianBlur result="blurOut" stdDeviation="2.0"/><feColorMatrix in="blurOut" result="blurOut2" type="matrix" values="0 0 0 0 0 0 0 0 0 0 0 0 0 0 0 0 0 0 .4 0"/><feOffset dx="4.0" dy="4.0" in="blurOut2" result="blurOut3"/><feBlend in="SourceGraphic" in2="blurOut3" mode="normal"/></filter></defs><g><!--MD5=[c9849993603b4846f7b586c1d5da7272]
class nz.ac.vuw.ecs.swen225.gp30.application.HelpMenuListener--><a href="HelpMenuListener.html" target="_top" title="HelpMenuListener.html" xlink:actuate="onRequest" xlink:href="HelpMenuListener.html" xlink:show="new" xlink:title="HelpMenuListener.html" xlink:type="simple"><rect codeLine="5" fill="#FEFECE" filter="url(#fnuucwon4pbiz)" height="89.6953" id="nz.ac.vuw.ecs.swen225.gp30.application.HelpMenuListener" style="stroke: #A80036; stroke-width: 1.5;" width="222" x="26.5" y="157"/><ellipse cx="41.5" cy="177.0938" fill="#ADD1B2" rx="11" ry="11" style="stroke: #A80036; stroke-width: 1.0;"/><path d="M44.2656,172.9688 Q44.4219,172.75 44.6094,172.6406 Q44.7969,172.5313 45.0156,172.5313 Q45.3906,172.5313 45.625,172.7969 Q45.8594,173.0469 45.8594,173.6563 L45.8594,175.1094 Q45.8594,175.7188 45.625,175.9844 Q45.3906,176.25 45.0156,176.25 Q44.6719,176.25 44.4688,176.0469 Q44.2656,175.8594 44.1563,175.3438 Q44.1094,174.9844 43.9219,174.7969 Q43.5938,174.4219 42.9844,174.2031 Q42.375,173.9844 41.75,173.9844 Q40.9844,173.9844 40.3438,174.3125 Q39.7188,174.6406 39.2188,175.3906 Q38.7344,176.1406 38.7344,177.1719 L38.7344,178.2656 Q38.7344,179.5 39.625,180.3281 Q40.5156,181.1406 42.1094,181.1406 Q43.0469,181.1406 43.7031,180.8906 Q44.0938,180.7344 44.5156,180.2969 Q44.7813,180.0313 44.9219,179.9531 Q45.0781,179.875 45.2813,179.875 Q45.6094,179.875 45.8594,180.1406 Q46.125,180.3906 46.125,180.7344 Q46.125,181.0781 45.7813,181.4844 Q45.2813,182.0625 44.4844,182.3906 Q43.4063,182.8438 42.1094,182.8438 Q40.5938,182.8438 39.3906,182.2188 Q38.4063,181.7188 37.7188,180.6563 Q37.0313,179.5781 37.0313,178.2969 L37.0313,177.1406 Q37.0313,175.8125 37.6406,174.6719 Q38.2656,173.5156 39.3594,172.9063 Q40.4531,172.2813 41.6875,172.2813 Q42.4219,172.2813 43.0625,172.4531 Q43.7188,172.6094 44.2656,172.9688 Z "/><text fill="#000000" font-family="sans-serif" font-size="14" lengthAdjust="spacingAndGlyphs" textLength="116" x="92.5" y="176.5332">HelpMenuListener</text><text fill="#000000" font-family="sans-serif" font-size="10" lengthAdjust="spacingAndGlyphs" textLength="190" x="55.5" y="189.9902">nz.ac.vuw.ecs.swen225.gp30.application</text><line style="stroke: #A80036; stroke-width: 1.5;" x1="27.5" x2="247.5" y1="197.1875" y2="197.1875"/><ellipse cx="37.5" cy="208.1875" fill="#84BE84" rx="3" ry="3" style="stroke: #038048; stroke-width: 1.0;"/><text fill="#000000" font-family="sans-serif" font-size="11" lengthAdjust="spacingAndGlyphs" textLength="158" x="46.5" y="212.6064">menuSelected(MenuEvent): void</text><ellipse cx="37.5" cy="222.0234" fill="#84BE84" rx="3" ry="3" style="stroke: #038048; stroke-width: 1.0;"/><text fill="#000000" font-family="sans-serif" font-size="11" lengthAdjust="spacingAndGlyphs" textLength="171" x="46.5" y="226.4424">menuDeselected(MenuEvent): void</text><ellipse cx="37.5" cy="235.8594" fill="#84BE84" rx="3" ry="3" style="stroke: #038048; stroke-width: 1.0;"/><text fill="#000000" font-family="sans-serif" font-size="11" lengthAdjust="spacingAndGlyphs" textLength="162" x="46.5" y="240.2783">menuCanceled(MenuEvent): void</text></a><!--MD5=[18a7562403221f513ca44e0f82c4c17a]
class javax.swing.JFrame--><rect codeLine="11" fill="#FEFECE" filter="url(#fnuucwon4pbiz)" height="40.1875" id="javax.swing.JFrame" style="stroke: #A80036; stroke-width: 1.5;" width="85" x="7" y="32"/><ellipse cx="22" cy="52.0938" fill="#ADD1B2" rx="11" ry="11" style="stroke: #A80036; stroke-width: 1.0;"/><path d="M24.7656,47.9688 Q24.9219,47.75 25.1094,47.6406 Q25.2969,47.5313 25.5156,47.5313 Q25.8906,47.5313 26.125,47.7969 Q26.3594,48.0469 26.3594,48.6563 L26.3594,50.1094 Q26.3594,50.7188 26.125,50.9844 Q25.8906,51.25 25.5156,51.25 Q25.1719,51.25 24.9688,51.0469 Q24.7656,50.8594 24.6563,50.3438 Q24.6094,49.9844 24.4219,49.7969 Q24.0938,49.4219 23.4844,49.2031 Q22.875,48.9844 22.25,48.9844 Q21.4844,48.9844 20.8438,49.3125 Q20.2188,49.6406 19.7188,50.3906 Q19.2344,51.1406 19.2344,52.1719 L19.2344,53.2656 Q19.2344,54.5 20.125,55.3281 Q21.0156,56.1406 22.6094,56.1406 Q23.5469,56.1406 24.2031,55.8906 Q24.5938,55.7344 25.0156,55.2969 Q25.2813,55.0313 25.4219,54.9531 Q25.5781,54.875 25.7813,54.875 Q26.1094,54.875 26.3594,55.1406 Q26.625,55.3906 26.625,55.7344 Q26.625,56.0781 26.2813,56.4844 Q25.7813,57.0625 24.9844,57.3906 Q23.9063,57.8438 22.6094,57.8438 Q21.0938,57.8438 19.8906,57.2188 Q18.9063,56.7188 18.2188,55.6563 Q17.5313,54.5781 17.5313,53.2969 L17.5313,52.1406 Q17.5313,50.8125 18.1406,49.6719 Q18.7656,48.5156 19.8594,47.9063 Q20.9531,47.2813 22.1875,47.2813 Q22.9219,47.2813 23.5625,47.4531 Q24.2188,47.6094 24.7656,47.9688 Z "/><text fill="#000000" font-family="sans-serif" font-size="14" lengthAdjust="spacingAndGlyphs" textLength="49" x="38" y="51.5332">JFrame</text><text fill="#000000" font-family="sans-serif" font-size="10" lengthAdjust="spacingAndGlyphs" textLength="53" x="36" y="64.9902">javax.swing</text><!--MD5=[5ca08f56416f76656c94d709bae02c08]
class javax.swing.event.MenuListener--><rect codeLine="12" fill="#FEFECE" filter="url(#fnuucwon4pbiz)" height="89.6953" id="javax.swing.event.MenuListener" style="stroke: #A80036; stroke-width: 1.5;" width="197" x="127" y="7"/><ellipse cx="177.75" cy="27.0938" fill="#B4A7E5" rx="11" ry="11" style="stroke: #A80036; stroke-width: 1.0;"/><path d="M178.7031,23.7344 L178.7031,30.3906 L180.4219,30.3906 Q181.0313,30.3906 181.2969,30.625 Q181.5625,30.8594 181.5625,31.25 Q181.5625,31.625 181.2969,31.8594 Q181.0313,32.0938 180.4219,32.0938 L175.2813,32.0938 Q174.6719,32.0938 174.4063,31.8594 Q174.1406,31.625 174.1406,31.2344 Q174.1406,30.8594 174.4063,30.625 Q174.6719,30.3906 175.2813,30.3906 L177,30.3906 L177,23.7344 L175.2813,23.7344 Q174.6719,23.7344 174.4063,23.5 Q174.1406,23.2656 174.1406,22.875 Q174.1406,22.5 174.4063,22.2656 Q174.6719,22.0313 175.2813,22.0313 L180.4219,22.0313 Q181.0313,22.0313 181.2969,22.2656 Q181.5625,22.5 181.5625,22.875 Q181.5625,23.2656 181.2969,23.5 Q181.0313,23.7344 180.4219,23.7344 L178.7031,23.7344 Z "/><text fill="#000000" font-family="sans-serif" font-size="14" font-style="italic" lengthAdjust="spacingAndGlyphs" textLength="87" x="198.25" y="26.5332">MenuListener</text><text fill="#000000" font-family="sans-serif" font-size="10" font-style="italic" lengthAdjust="spacingAndGlyphs" textLength="82" x="200.75" y="39.9902">javax.swing.event</text><line style="stroke: #A80036; stroke-width: 1.5;" x1="128" x2="323" y1="47.1875" y2="47.1875"/><ellipse cx="138" cy="58.1875" fill="#84BE84" rx="3" ry="3" style="stroke: #038048; stroke-width: 1.0;"/><text fill="#000000" font-family="sans-serif" font-size="11" font-style="italic" lengthAdjust="spacingAndGlyphs" textLength="158" x="147" y="62.6064">menuSelected(MenuEvent): void</text><ellipse cx="138" cy="72.0234" fill="#84BE84" rx="3" ry="3" style="stroke: #038048; stroke-width: 1.0;"/><text fill="#000000" font-family="sans-serif" font-size="11" font-style="italic" lengthAdjust="spacingAndGlyphs" textLength="171" x="147" y="76.4424">menuDeselected(MenuEvent): void</text><ellipse cx="138" cy="85.8594" fill="#84BE84" rx="3" ry="3" style="stroke: #038048; stroke-width: 1.0;"/><text fill="#000000" font-family="sans-serif" font-size="11" font-style="italic" lengthAdjust="spacingAndGlyphs" textLength="162" x="147" y="90.2783">menuCanceled(MenuEvent): void</text><!--MD5=[5294f9ecc9bdbb01757f244d4295bd96]
reverse link javax.swing.JFrame to nz.ac.vuw.ecs.swen225.gp30.application.HelpMenuListener--><path codeLine="18" d="M71.13,89.37 C83.25,109.76 98.46,135.34 111.26,156.87 " fill="none" id="javax.swing.JFrame-backto-nz.ac.vuw.ecs.swen225.gp30.application.HelpMenuListener" style="stroke: #A80036; stroke-width: 1.0;"/><polygon fill="none" points="65.03,92.81,60.82,72.05,77.06,85.66,65.03,92.81" style="stroke: #A80036; stroke-width: 1.0;"/><!--MD5=[7054df0909a53c5d582c4cb011a60739]
reverse link javax.swing.event.MenuListener to nz.ac.vuw.ecs.swen225.gp30.application.HelpMenuListener--><path codeLine="19" d="M188.92,114.52 C180.46,128.74 171.63,143.6 163.72,156.91 " fill="none" id="javax.swing.event.MenuListener-backto-nz.ac.vuw.ecs.swen225.gp30.application.HelpMenuListener" style="stroke: #A80036; stroke-width: 1.0; stroke-dasharray: 7.0,7.0;"/><polygon fill="none" points="183.1,110.62,199.34,97,195.13,117.77,183.1,110.62" style="stroke: #A80036; stroke-width: 1.0;"/><text fill="#888888" font-family="sans-serif" font-size="10" lengthAdjust="spacingAndGlyphs" textLength="185" x="70" y="270.0762">UMLDoclet 2.0.12, PlantUML 1.2020.16</text><!--MD5=[42d88d78579037b97ae59a1a7df5353b]
@startuml
    set namespaceSeparator none
    hide empty fields
    hide empty methods

    class "<size:14>HelpMenuListener\n<size:10>nz.ac.vuw.ecs.swen225.gp30.application" as nz.ac.vuw.ecs.swen225.gp30.application.HelpMenuListener [[HelpMenuListener.html]] {
        +menuSelected(MenuEvent): void
        +menuDeselected(MenuEvent): void
        +menuCanceled(MenuEvent): void
    }

    class "<size:14>JFrame\n<size:10>javax.swing" as javax.swing.JFrame
    interface "<size:14>MenuListener\n<size:10>javax.swing.event" as javax.swing.event.MenuListener {
        {abstract} +menuSelected(MenuEvent): void
        {abstract} +menuDeselected(MenuEvent): void
        {abstract} +menuCanceled(MenuEvent): void
    }

    javax.swing.JFrame <|- - nz.ac.vuw.ecs.swen225.gp30.application.HelpMenuListener
    javax.swing.event.MenuListener <|.. nz.ac.vuw.ecs.swen225.gp30.application.HelpMenuListener

    center footer UMLDoclet 2.0.12, PlantUML 1.2020.16
@enduml

PlantUML version 1.2020.16(Mon Aug 24 08:20:43 NZST 2020)
(APACHE source distribution)
Java Runtime: Java(TM) SE Runtime Environment
JVM: Java HotSpot(TM) 64-Bit Server VM
Default Encoding: Cp1252
Language: en
Country: NZ
--></g></svg>