<?xml version="1.0" encoding="UTF-8" standalone="no"?><svg xmlns="http://www.w3.org/2000/svg" xmlns:xlink="http://www.w3.org/1999/xlink" contentScriptType="application/ecmascript" contentStyleType="text/css" height="247px" preserveAspectRatio="none" style="width:250px;height:247px;" version="1.1" viewBox="0 0 250 247" width="250px" zoomAndPan="magnify"><defs><filter height="300%" id="fy60p0efdfodv" width="300%" x="-1" y="-1"><feGaussianBlur result="blurOut" stdDeviation="2.0"/><feColorMatrix in="blurOut" result="blurOut2" type="matrix" values="0 0 0 0 0 0 0 0 0 0 0 0 0 0 0 0 0 0 .4 0"/><feOffset dx="4.0" dy="4.0" in="blurOut2" result="blurOut3"/><feBlend in="SourceGraphic" in2="blurOut3" mode="normal"/></filter></defs><g><!--MD5=[b556440e7d9f8939e9425ab72c5c1f79]
class nz.ac.vuw.ecs.swen225.gp30.application.InventoryPanel--><a href="InventoryPanel.html" target="_top" title="InventoryPanel.html" xlink:actuate="onRequest" xlink:href="InventoryPanel.html" xlink:show="new" xlink:title="InventoryPanel.html" xlink:type="simple"><rect codeLine="5" fill="#FEFECE" filter="url(#fy60p0efdfodv)" height="103.5313" id="nz.ac.vuw.ecs.swen225.gp30.application.InventoryPanel" style="stroke: #A80036; stroke-width: 1.5;" width="222" x="9" y="107"/><ellipse cx="24" cy="127.0938" fill="#ADD1B2" rx="11" ry="11" style="stroke: #A80036; stroke-width: 1.0;"/><path d="M26.7656,122.9688 Q26.9219,122.75 27.1094,122.6406 Q27.2969,122.5313 27.5156,122.5313 Q27.8906,122.5313 28.125,122.7969 Q28.3594,123.0469 28.3594,123.6563 L28.3594,125.1094 Q28.3594,125.7188 28.125,125.9844 Q27.8906,126.25 27.5156,126.25 Q27.1719,126.25 26.9688,126.0469 Q26.7656,125.8594 26.6563,125.3438 Q26.6094,124.9844 26.4219,124.7969 Q26.0938,124.4219 25.4844,124.2031 Q24.875,123.9844 24.25,123.9844 Q23.4844,123.9844 22.8438,124.3125 Q22.2188,124.6406 21.7188,125.3906 Q21.2344,126.1406 21.2344,127.1719 L21.2344,128.2656 Q21.2344,129.5 22.125,130.3281 Q23.0156,131.1406 24.6094,131.1406 Q25.5469,131.1406 26.2031,130.8906 Q26.5938,130.7344 27.0156,130.2969 Q27.2813,130.0313 27.4219,129.9531 Q27.5781,129.875 27.7813,129.875 Q28.1094,129.875 28.3594,130.1406 Q28.625,130.3906 28.625,130.7344 Q28.625,131.0781 28.2813,131.4844 Q27.7813,132.0625 26.9844,132.3906 Q25.9063,132.8438 24.6094,132.8438 Q23.0938,132.8438 21.8906,132.2188 Q20.9063,131.7188 20.2188,130.6563 Q19.5313,129.5781 19.5313,128.2969 L19.5313,127.1406 Q19.5313,125.8125 20.1406,124.6719 Q20.7656,123.5156 21.8594,122.9063 Q22.9531,122.2813 24.1875,122.2813 Q24.9219,122.2813 25.5625,122.4531 Q26.2188,122.6094 26.7656,122.9688 Z "/><text fill="#000000" font-family="sans-serif" font-size="14" lengthAdjust="spacingAndGlyphs" textLength="95" x="85.5" y="126.5332">InventoryPanel</text><text fill="#000000" font-family="sans-serif" font-size="10" lengthAdjust="spacingAndGlyphs" textLength="190" x="38" y="139.9902">nz.ac.vuw.ecs.swen225.gp30.application</text><line style="stroke: #A80036; stroke-width: 1.5;" x1="10" x2="230" y1="147.1875" y2="147.1875"/><ellipse cx="20" cy="158.1875" fill="#84BE84" rx="3" ry="3" style="stroke: #038048; stroke-width: 1.0;"/><text fill="#000000" font-family="sans-serif" font-size="11" lengthAdjust="spacingAndGlyphs" textLength="175" x="29" y="162.6064">setItemsToDisplay(List&lt;Item&gt;): void</text><ellipse cx="20" cy="172.0234" fill="#84BE84" rx="3" ry="3" style="stroke: #038048; stroke-width: 1.0;"/><text fill="#000000" font-family="sans-serif" font-size="11" lengthAdjust="spacingAndGlyphs" textLength="151" x="29" y="176.4424">getImage(Item): BufferedImage</text><polygon fill="#FFFF44" points="20,180.8594,24,184.8594,20,188.8594,16,184.8594" style="stroke: #B38D22; stroke-width: 1.0;"/><text fill="#000000" font-family="sans-serif" font-size="11" lengthAdjust="spacingAndGlyphs" textLength="158" x="29" y="190.2783">paintComponent(Graphics): void</text><ellipse cx="20" cy="199.6953" fill="#84BE84" rx="3" ry="3" style="stroke: #038048; stroke-width: 1.0;"/><text fill="#000000" font-family="sans-serif" font-size="11" lengthAdjust="spacingAndGlyphs" textLength="67" x="29" y="204.1143">repaint(): void</text></a><!--MD5=[56a185cb33bdc7c23303e5865f20a19b]
class javax.swing.JPanel--><rect codeLine="12" fill="#FEFECE" filter="url(#fy60p0efdfodv)" height="40.1875" id="javax.swing.JPanel" style="stroke: #A80036; stroke-width: 1.5;" width="85" x="77.5" y="7"/><ellipse cx="92.5" cy="27.0938" fill="#ADD1B2" rx="11" ry="11" style="stroke: #A80036; stroke-width: 1.0;"/><path d="M95.2656,22.9688 Q95.4219,22.75 95.6094,22.6406 Q95.7969,22.5313 96.0156,22.5313 Q96.3906,22.5313 96.625,22.7969 Q96.8594,23.0469 96.8594,23.6563 L96.8594,25.1094 Q96.8594,25.7188 96.625,25.9844 Q96.3906,26.25 96.0156,26.25 Q95.6719,26.25 95.4688,26.0469 Q95.2656,25.8594 95.1563,25.3438 Q95.1094,24.9844 94.9219,24.7969 Q94.5938,24.4219 93.9844,24.2031 Q93.375,23.9844 92.75,23.9844 Q91.9844,23.9844 91.3438,24.3125 Q90.7188,24.6406 90.2188,25.3906 Q89.7344,26.1406 89.7344,27.1719 L89.7344,28.2656 Q89.7344,29.5 90.625,30.3281 Q91.5156,31.1406 93.1094,31.1406 Q94.0469,31.1406 94.7031,30.8906 Q95.0938,30.7344 95.5156,30.2969 Q95.7813,30.0313 95.9219,29.9531 Q96.0781,29.875 96.2813,29.875 Q96.6094,29.875 96.8594,30.1406 Q97.125,30.3906 97.125,30.7344 Q97.125,31.0781 96.7813,31.4844 Q96.2813,32.0625 95.4844,32.3906 Q94.4063,32.8438 93.1094,32.8438 Q91.5938,32.8438 90.3906,32.2188 Q89.4063,31.7188 88.7188,30.6563 Q88.0313,29.5781 88.0313,28.2969 L88.0313,27.1406 Q88.0313,25.8125 88.6406,24.6719 Q89.2656,23.5156 90.3594,22.9063 Q91.4531,22.2813 92.6875,22.2813 Q93.4219,22.2813 94.0625,22.4531 Q94.7188,22.6094 95.2656,22.9688 Z "/><text fill="#000000" font-family="sans-serif" font-size="14" lengthAdjust="spacingAndGlyphs" textLength="43" x="111.5" y="26.5332">JPanel</text><text fill="#000000" font-family="sans-serif" font-size="10" lengthAdjust="spacingAndGlyphs" textLength="53" x="106.5" y="39.9902">javax.swing</text><!--MD5=[3c1420ad63cac58f121a248a5131776d]
reverse link javax.swing.JPanel to nz.ac.vuw.ecs.swen225.gp30.application.InventoryPanel--><path codeLine="14" d="M120,67.49 C120,79.93 120,93.86 120,106.99 " fill="none" id="javax.swing.JPanel-backto-nz.ac.vuw.ecs.swen225.gp30.application.InventoryPanel" style="stroke: #A80036; stroke-width: 1.0;"/><polygon fill="none" points="113,67.18,120,47.18,127,67.18,113,67.18" style="stroke: #A80036; stroke-width: 1.0;"/><text fill="#888888" font-family="sans-serif" font-size="10" lengthAdjust="spacingAndGlyphs" textLength="185" x="23.5" y="233.9121">UMLDoclet 2.0.12, PlantUML 1.2020.16</text><!--MD5=[6c7de7246dbe2e6bf2a996f93a9565d8]
@startuml
    set namespaceSeparator none
    hide empty fields
    hide empty methods

    class "<size:14>InventoryPanel\n<size:10>nz.ac.vuw.ecs.swen225.gp30.application" as nz.ac.vuw.ecs.swen225.gp30.application.InventoryPanel [[InventoryPanel.html]] {
        +setItemsToDisplay(List<Item>): void
        +getImage(Item): BufferedImage
        #paintComponent(Graphics): void
        +repaint(): void
    }

    class "<size:14>JPanel\n<size:10>javax.swing" as javax.swing.JPanel

    javax.swing.JPanel <|- - nz.ac.vuw.ecs.swen225.gp30.application.InventoryPanel

    center footer UMLDoclet 2.0.12, PlantUML 1.2020.16
@enduml

PlantUML version 1.2020.16(Mon Aug 24 08:20:43 NZST 2020)
(APACHE source distribution)
Java Runtime: Java(TM) SE Runtime Environment
JVM: Java HotSpot(TM) 64-Bit Server VM
Default Encoding: Cp1252
Language: en
Country: NZ
--></g></svg>