<?xml version="1.0" encoding="UTF-8" standalone="no"?><svg xmlns="http://www.w3.org/2000/svg" xmlns:xlink="http://www.w3.org/1999/xlink" contentScriptType="application/ecmascript" contentStyleType="text/css" height="311px" preserveAspectRatio="none" style="width:248px;height:311px;" version="1.1" viewBox="0 0 248 311" width="248px" zoomAndPan="magnify"><defs><filter height="300%" id="f1qf164gsev3bz" width="300%" x="-1" y="-1"><feGaussianBlur result="blurOut" stdDeviation="2.0"/><feColorMatrix in="blurOut" result="blurOut2" type="matrix" values="0 0 0 0 0 0 0 0 0 0 0 0 0 0 0 0 0 0 .4 0"/><feOffset dx="4.0" dy="4.0" in="blurOut2" result="blurOut3"/><feBlend in="SourceGraphic" in2="blurOut3" mode="normal"/></filter></defs><g><!--MD5=[ae817e6cb5149d1daffb4db3fa84c783]
class nz.ac.vuw.ecs.swen225.gp30.application.PlayerControls--><a href="PlayerControls.html" target="_top" title="PlayerControls.html" xlink:actuate="onRequest" xlink:href="PlayerControls.html" xlink:show="new" xlink:title="PlayerControls.html" xlink:type="simple"><rect codeLine="5" fill="#FEFECE" filter="url(#f1qf164gsev3bz)" height="117.3672" id="nz.ac.vuw.ecs.swen225.gp30.application.PlayerControls" style="stroke: #A80036; stroke-width: 1.5;" width="222" x="7" y="157"/><ellipse cx="22" cy="177.0938" fill="#ADD1B2" rx="11" ry="11" style="stroke: #A80036; stroke-width: 1.0;"/><path d="M24.7656,172.9688 Q24.9219,172.75 25.1094,172.6406 Q25.2969,172.5313 25.5156,172.5313 Q25.8906,172.5313 26.125,172.7969 Q26.3594,173.0469 26.3594,173.6563 L26.3594,175.1094 Q26.3594,175.7188 26.125,175.9844 Q25.8906,176.25 25.5156,176.25 Q25.1719,176.25 24.9688,176.0469 Q24.7656,175.8594 24.6563,175.3438 Q24.6094,174.9844 24.4219,174.7969 Q24.0938,174.4219 23.4844,174.2031 Q22.875,173.9844 22.25,173.9844 Q21.4844,173.9844 20.8438,174.3125 Q20.2188,174.6406 19.7188,175.3906 Q19.2344,176.1406 19.2344,177.1719 L19.2344,178.2656 Q19.2344,179.5 20.125,180.3281 Q21.0156,181.1406 22.6094,181.1406 Q23.5469,181.1406 24.2031,180.8906 Q24.5938,180.7344 25.0156,180.2969 Q25.2813,180.0313 25.4219,179.9531 Q25.5781,179.875 25.7813,179.875 Q26.1094,179.875 26.3594,180.1406 Q26.625,180.3906 26.625,180.7344 Q26.625,181.0781 26.2813,181.4844 Q25.7813,182.0625 24.9844,182.3906 Q23.9063,182.8438 22.6094,182.8438 Q21.0938,182.8438 19.8906,182.2188 Q18.9063,181.7188 18.2188,180.6563 Q17.5313,179.5781 17.5313,178.2969 L17.5313,177.1406 Q17.5313,175.8125 18.1406,174.6719 Q18.7656,173.5156 19.8594,172.9063 Q20.9531,172.2813 22.1875,172.2813 Q22.9219,172.2813 23.5625,172.4531 Q24.2188,172.6094 24.7656,172.9688 Z "/><text fill="#000000" font-family="sans-serif" font-size="14" lengthAdjust="spacingAndGlyphs" textLength="93" x="84.5" y="176.5332">PlayerControls</text><text fill="#000000" font-family="sans-serif" font-size="10" lengthAdjust="spacingAndGlyphs" textLength="190" x="36" y="189.9902">nz.ac.vuw.ecs.swen225.gp30.application</text><line style="stroke: #A80036; stroke-width: 1.5;" x1="8" x2="228" y1="197.1875" y2="197.1875"/><ellipse cx="18" cy="208.1875" fill="#84BE84" rx="3" ry="3" style="stroke: #038048; stroke-width: 1.0;"/><text fill="#000000" font-family="sans-serif" font-size="11" lengthAdjust="spacingAndGlyphs" textLength="130" x="27" y="212.6064">keyTyped(KeyEvent): void</text><ellipse cx="18" cy="222.0234" fill="#84BE84" rx="3" ry="3" style="stroke: #038048; stroke-width: 1.0;"/><text fill="#000000" font-family="sans-serif" font-size="11" lengthAdjust="spacingAndGlyphs" textLength="140" x="27" y="226.4424">keyPressed(KeyEvent): void</text><ellipse cx="18" cy="235.8594" fill="#84BE84" rx="3" ry="3" style="stroke: #038048; stroke-width: 1.0;"/><text fill="#000000" font-family="sans-serif" font-size="11" lengthAdjust="spacingAndGlyphs" textLength="145" x="27" y="240.2783">keyReleased(KeyEvent): void</text><ellipse cx="18" cy="249.6953" fill="#84BE84" rx="3" ry="3" style="stroke: #038048; stroke-width: 1.0;"/><text fill="#000000" font-family="sans-serif" font-size="11" lengthAdjust="spacingAndGlyphs" textLength="95" x="27" y="254.1143">releaseKeys(): void</text><ellipse cx="18" cy="263.5313" fill="#84BE84" rx="3" ry="3" style="stroke: #038048; stroke-width: 1.0;"/><text fill="#000000" font-family="sans-serif" font-size="11" lengthAdjust="spacingAndGlyphs" textLength="132" x="27" y="267.9502">bindKey(Integer, Key): void</text></a><!--MD5=[3eb55d915ce4c988cc6fe2a782a0fcdf]
class java.awt.event.KeyListener--><rect codeLine="13" fill="#FEFECE" filter="url(#f1qf164gsev3bz)" height="89.6953" id="java.awt.event.KeyListener" style="stroke: #A80036; stroke-width: 1.5;" width="171" x="32.5" y="7"/><ellipse cx="76.3" cy="27.0938" fill="#B4A7E5" rx="11" ry="11" style="stroke: #A80036; stroke-width: 1.0;"/><path d="M77.2531,23.7344 L77.2531,30.3906 L78.9719,30.3906 Q79.5813,30.3906 79.8469,30.625 Q80.1125,30.8594 80.1125,31.25 Q80.1125,31.625 79.8469,31.8594 Q79.5813,32.0938 78.9719,32.0938 L73.8313,32.0938 Q73.2219,32.0938 72.9563,31.8594 Q72.6906,31.625 72.6906,31.2344 Q72.6906,30.8594 72.9563,30.625 Q73.2219,30.3906 73.8313,30.3906 L75.55,30.3906 L75.55,23.7344 L73.8313,23.7344 Q73.2219,23.7344 72.9563,23.5 Q72.6906,23.2656 72.6906,22.875 Q72.6906,22.5 72.9563,22.2656 Q73.2219,22.0313 73.8313,22.0313 L78.9719,22.0313 Q79.5813,22.0313 79.8469,22.2656 Q80.1125,22.5 80.1125,22.875 Q80.1125,23.2656 79.8469,23.5 Q79.5813,23.7344 78.9719,23.7344 L77.2531,23.7344 Z "/><text fill="#000000" font-family="sans-serif" font-size="14" font-style="italic" lengthAdjust="spacingAndGlyphs" textLength="75" x="96.7" y="26.5332">KeyListener</text><text fill="#000000" font-family="sans-serif" font-size="10" font-style="italic" lengthAdjust="spacingAndGlyphs" textLength="67" x="100.7" y="39.9902">java.awt.event</text><line style="stroke: #A80036; stroke-width: 1.5;" x1="33.5" x2="202.5" y1="47.1875" y2="47.1875"/><ellipse cx="43.5" cy="58.1875" fill="#84BE84" rx="3" ry="3" style="stroke: #038048; stroke-width: 1.0;"/><text fill="#000000" font-family="sans-serif" font-size="11" font-style="italic" lengthAdjust="spacingAndGlyphs" textLength="130" x="52.5" y="62.6064">keyTyped(KeyEvent): void</text><ellipse cx="43.5" cy="72.0234" fill="#84BE84" rx="3" ry="3" style="stroke: #038048; stroke-width: 1.0;"/><text fill="#000000" font-family="sans-serif" font-size="11" font-style="italic" lengthAdjust="spacingAndGlyphs" textLength="140" x="52.5" y="76.4424">keyPressed(KeyEvent): void</text><ellipse cx="43.5" cy="85.8594" fill="#84BE84" rx="3" ry="3" style="stroke: #038048; stroke-width: 1.0;"/><text fill="#000000" font-family="sans-serif" font-size="11" font-style="italic" lengthAdjust="spacingAndGlyphs" textLength="145" x="52.5" y="90.2783">keyReleased(KeyEvent): void</text><!--MD5=[80f7b7d53bd36f089c4c98baff4ad4ca]
reverse link java.awt.event.KeyListener to nz.ac.vuw.ecs.swen225.gp30.application.PlayerControls--><path codeLine="19" d="M118,117.5 C118,130.48 118,144.05 118,156.78 " fill="none" id="java.awt.event.KeyListener-backto-nz.ac.vuw.ecs.swen225.gp30.application.PlayerControls" style="stroke: #A80036; stroke-width: 1.0; stroke-dasharray: 7.0,7.0;"/><polygon fill="none" points="111,117.13,118,97.13,125,117.13,111,117.13" style="stroke: #A80036; stroke-width: 1.0;"/><text fill="#888888" font-family="sans-serif" font-size="10" lengthAdjust="spacingAndGlyphs" textLength="185" x="22.5" y="297.748">UMLDoclet 2.0.12, PlantUML 1.2020.16</text><!--MD5=[da9c332e77d05245c312f026ec309565]
@startuml
    set namespaceSeparator none
    hide empty fields
    hide empty methods

    class "<size:14>PlayerControls\n<size:10>nz.ac.vuw.ecs.swen225.gp30.application" as nz.ac.vuw.ecs.swen225.gp30.application.PlayerControls [[PlayerControls.html]] {
        +keyTyped(KeyEvent): void
        +keyPressed(KeyEvent): void
        +keyReleased(KeyEvent): void
        +releaseKeys(): void
        +bindKey(Integer, Key): void
    }

    interface "<size:14>KeyListener\n<size:10>java.awt.event" as java.awt.event.KeyListener {
        {abstract} +keyTyped(KeyEvent): void
        {abstract} +keyPressed(KeyEvent): void
        {abstract} +keyReleased(KeyEvent): void
    }

    java.awt.event.KeyListener <|.. nz.ac.vuw.ecs.swen225.gp30.application.PlayerControls

    center footer UMLDoclet 2.0.12, PlantUML 1.2020.16
@enduml

PlantUML version 1.2020.16(Mon Aug 24 08:20:43 NZST 2020)
(APACHE source distribution)
Java Runtime: Java(TM) SE Runtime Environment
JVM: Java HotSpot(TM) 64-Bit Server VM
Default Encoding: Cp1252
Language: en
Country: NZ
--></g></svg>