<?xml version="1.0" encoding="UTF-8" standalone="no"?><svg xmlns="http://www.w3.org/2000/svg" xmlns:xlink="http://www.w3.org/1999/xlink" contentScriptType="application/ecmascript" contentStyleType="text/css" height="407px" preserveAspectRatio="none" style="width:246px;height:407px;" version="1.1" viewBox="0 0 246 407" width="246px" zoomAndPan="magnify"><defs><filter height="300%" id="f55aig26h2pwu" width="300%" x="-1" y="-1"><feGaussianBlur result="blurOut" stdDeviation="2.0"/><feColorMatrix in="blurOut" result="blurOut2" type="matrix" values="0 0 0 0 0 0 0 0 0 0 0 0 0 0 0 0 0 0 .4 0"/><feOffset dx="4.0" dy="4.0" in="blurOut2" result="blurOut3"/><feBlend in="SourceGraphic" in2="blurOut3" mode="normal"/></filter></defs><g><!--MD5=[073d9a432b5ecb9af8df75a556da88b5]
class nz.ac.vuw.ecs.swen225.gp30.render.GameVisuals--><a href="GameVisuals.html" target="_top" title="GameVisuals.html" xlink:actuate="onRequest" xlink:href="GameVisuals.html" xlink:show="new" xlink:title="GameVisuals.html" xlink:type="simple"><rect codeLine="5" fill="#FEFECE" filter="url(#f55aig26h2pwu)" height="263.7266" id="nz.ac.vuw.ecs.swen225.gp30.render.GameVisuals" style="stroke: #A80036; stroke-width: 1.5;" width="220" x="7" y="107"/><ellipse cx="30.1" cy="127.0938" fill="#ADD1B2" rx="11" ry="11" style="stroke: #A80036; stroke-width: 1.0;"/><path d="M32.8656,122.9688 Q33.0219,122.75 33.2094,122.6406 Q33.3969,122.5313 33.6156,122.5313 Q33.9906,122.5313 34.225,122.7969 Q34.4594,123.0469 34.4594,123.6563 L34.4594,125.1094 Q34.4594,125.7188 34.225,125.9844 Q33.9906,126.25 33.6156,126.25 Q33.2719,126.25 33.0688,126.0469 Q32.8656,125.8594 32.7563,125.3438 Q32.7094,124.9844 32.5219,124.7969 Q32.1938,124.4219 31.5844,124.2031 Q30.975,123.9844 30.35,123.9844 Q29.5844,123.9844 28.9438,124.3125 Q28.3188,124.6406 27.8188,125.3906 Q27.3344,126.1406 27.3344,127.1719 L27.3344,128.2656 Q27.3344,129.5 28.225,130.3281 Q29.1156,131.1406 30.7094,131.1406 Q31.6469,131.1406 32.3031,130.8906 Q32.6938,130.7344 33.1156,130.2969 Q33.3813,130.0313 33.5219,129.9531 Q33.6781,129.875 33.8813,129.875 Q34.2094,129.875 34.4594,130.1406 Q34.725,130.3906 34.725,130.7344 Q34.725,131.0781 34.3813,131.4844 Q33.8813,132.0625 33.0844,132.3906 Q32.0063,132.8438 30.7094,132.8438 Q29.1938,132.8438 27.9906,132.2188 Q27.0063,131.7188 26.3188,130.6563 Q25.6313,129.5781 25.6313,128.2969 L25.6313,127.1406 Q25.6313,125.8125 26.2406,124.6719 Q26.8656,123.5156 27.9594,122.9063 Q29.0531,122.2813 30.2875,122.2813 Q31.0219,122.2813 31.6625,122.4531 Q32.3188,122.6094 32.8656,122.9688 Z "/><text fill="#000000" font-family="sans-serif" font-size="14" lengthAdjust="spacingAndGlyphs" textLength="84" x="88.9" y="126.5332">GameVisuals</text><text fill="#000000" font-family="sans-serif" font-size="10" lengthAdjust="spacingAndGlyphs" textLength="170" x="45.9" y="139.9902">nz.ac.vuw.ecs.swen225.gp30.render</text><line style="stroke: #A80036; stroke-width: 1.5;" x1="8" x2="226" y1="147.1875" y2="147.1875"/><ellipse cx="18" cy="158.1875" fill="none" rx="3" ry="3" style="stroke: #038048; stroke-width: 1.0;"/><text fill="#000000" font-family="sans-serif" font-size="11" lengthAdjust="spacingAndGlyphs" textLength="91" x="27" y="162.6064">toggleInfo: boolean</text><ellipse cx="18" cy="172.0234" fill="none" rx="3" ry="3" style="stroke: #038048; stroke-width: 1.0;"/><text fill="#000000" font-family="sans-serif" font-size="11" lengthAdjust="spacingAndGlyphs" textLength="194" x="27" y="176.4424">imageMap: Map&lt;String, BufferedImage&gt;</text><line style="stroke: #A80036; stroke-width: 1.5;" x1="8" x2="226" y1="182.8594" y2="182.8594"/><ellipse cx="18" cy="193.8594" fill="#84BE84" rx="3" ry="3" style="stroke: #038048; stroke-width: 1.0;"/><text fill="#000000" font-family="sans-serif" font-size="11" lengthAdjust="spacingAndGlyphs" textLength="90" x="27" y="198.2783">loadImages(): void</text><ellipse cx="18" cy="207.6953" fill="#84BE84" rx="3" ry="3" style="stroke: #038048; stroke-width: 1.0;"/><text fill="#000000" font-family="sans-serif" font-size="11" lengthAdjust="spacingAndGlyphs" textLength="137" x="27" y="212.1143">setGame(GameWorld): void</text><ellipse cx="18" cy="221.5313" fill="#84BE84" rx="3" ry="3" style="stroke: #038048; stroke-width: 1.0;"/><text fill="#000000" font-family="sans-serif" font-size="11" lengthAdjust="spacingAndGlyphs" textLength="117" x="27" y="225.9502">setInfoText(String): void</text><ellipse cx="18" cy="235.3672" fill="#84BE84" rx="3" ry="3" style="stroke: #038048; stroke-width: 1.0;"/><text fill="#000000" font-family="sans-serif" font-size="11" lengthAdjust="spacingAndGlyphs" textLength="119" x="27" y="239.7861">toggleInfo(boolean): void</text><ellipse cx="18" cy="249.2031" fill="#84BE84" rx="3" ry="3" style="stroke: #038048; stroke-width: 1.0;"/><text fill="#000000" font-family="sans-serif" font-size="11" lengthAdjust="spacingAndGlyphs" textLength="177" x="27" y="253.6221">getTilesToRender(): Collection&lt;Tile&gt;</text><ellipse cx="18" cy="263.0391" fill="#84BE84" rx="3" ry="3" style="stroke: #038048; stroke-width: 1.0;"/><text fill="#000000" font-family="sans-serif" font-size="11" lengthAdjust="spacingAndGlyphs" textLength="93" x="27" y="267.458">getScreenX(int): int</text><ellipse cx="18" cy="276.875" fill="#84BE84" rx="3" ry="3" style="stroke: #038048; stroke-width: 1.0;"/><text fill="#000000" font-family="sans-serif" font-size="11" lengthAdjust="spacingAndGlyphs" textLength="93" x="27" y="281.2939">getScreenY(int): int</text><ellipse cx="18" cy="290.7109" fill="#84BE84" rx="3" ry="3" style="stroke: #038048; stroke-width: 1.0;"/><text fill="#000000" font-family="sans-serif" font-size="11" lengthAdjust="spacingAndGlyphs" textLength="93" x="27" y="295.1299">getTranslateX(): int</text><ellipse cx="18" cy="304.5469" fill="#84BE84" rx="3" ry="3" style="stroke: #038048; stroke-width: 1.0;"/><text fill="#000000" font-family="sans-serif" font-size="11" lengthAdjust="spacingAndGlyphs" textLength="93" x="27" y="308.9658">getTranslateY(): int</text><ellipse cx="18" cy="318.3828" fill="#84BE84" rx="3" ry="3" style="stroke: #038048; stroke-width: 1.0;"/><text fill="#000000" font-family="sans-serif" font-size="11" lengthAdjust="spacingAndGlyphs" textLength="134" x="27" y="322.8018">renderTiles(Graphics): void</text><ellipse cx="18" cy="332.2188" fill="#84BE84" rx="3" ry="3" style="stroke: #038048; stroke-width: 1.0;"/><text fill="#000000" font-family="sans-serif" font-size="11" lengthAdjust="spacingAndGlyphs" textLength="137" x="27" y="336.6377">renderChap(Graphics): void</text><ellipse cx="18" cy="346.0547" fill="#84BE84" rx="3" ry="3" style="stroke: #038048; stroke-width: 1.0;"/><text fill="#000000" font-family="sans-serif" font-size="11" lengthAdjust="spacingAndGlyphs" textLength="138" x="27" y="350.4736">renderMobs(Graphics): void</text><ellipse cx="18" cy="359.8906" fill="#84BE84" rx="3" ry="3" style="stroke: #038048; stroke-width: 1.0;"/><text fill="#000000" font-family="sans-serif" font-size="11" lengthAdjust="spacingAndGlyphs" textLength="158" x="27" y="364.3096">paintComponent(Graphics): void</text></a><!--MD5=[56a185cb33bdc7c23303e5865f20a19b]
class javax.swing.JPanel--><rect codeLine="23" fill="#FEFECE" filter="url(#f55aig26h2pwu)" height="40.1875" id="javax.swing.JPanel" style="stroke: #A80036; stroke-width: 1.5;" width="85" x="74.5" y="7"/><ellipse cx="89.5" cy="27.0938" fill="#ADD1B2" rx="11" ry="11" style="stroke: #A80036; stroke-width: 1.0;"/><path d="M92.2656,22.9688 Q92.4219,22.75 92.6094,22.6406 Q92.7969,22.5313 93.0156,22.5313 Q93.3906,22.5313 93.625,22.7969 Q93.8594,23.0469 93.8594,23.6563 L93.8594,25.1094 Q93.8594,25.7188 93.625,25.9844 Q93.3906,26.25 93.0156,26.25 Q92.6719,26.25 92.4688,26.0469 Q92.2656,25.8594 92.1563,25.3438 Q92.1094,24.9844 91.9219,24.7969 Q91.5938,24.4219 90.9844,24.2031 Q90.375,23.9844 89.75,23.9844 Q88.9844,23.9844 88.3438,24.3125 Q87.7188,24.6406 87.2188,25.3906 Q86.7344,26.1406 86.7344,27.1719 L86.7344,28.2656 Q86.7344,29.5 87.625,30.3281 Q88.5156,31.1406 90.1094,31.1406 Q91.0469,31.1406 91.7031,30.8906 Q92.0938,30.7344 92.5156,30.2969 Q92.7813,30.0313 92.9219,29.9531 Q93.0781,29.875 93.2813,29.875 Q93.6094,29.875 93.8594,30.1406 Q94.125,30.3906 94.125,30.7344 Q94.125,31.0781 93.7813,31.4844 Q93.2813,32.0625 92.4844,32.3906 Q91.4063,32.8438 90.1094,32.8438 Q88.5938,32.8438 87.3906,32.2188 Q86.4063,31.7188 85.7188,30.6563 Q85.0313,29.5781 85.0313,28.2969 L85.0313,27.1406 Q85.0313,25.8125 85.6406,24.6719 Q86.2656,23.5156 87.3594,22.9063 Q88.4531,22.2813 89.6875,22.2813 Q90.4219,22.2813 91.0625,22.4531 Q91.7188,22.6094 92.2656,22.9688 Z "/><text fill="#000000" font-family="sans-serif" font-size="14" lengthAdjust="spacingAndGlyphs" textLength="43" x="108.5" y="26.5332">JPanel</text><text fill="#000000" font-family="sans-serif" font-size="10" lengthAdjust="spacingAndGlyphs" textLength="53" x="103.5" y="39.9902">javax.swing</text><!--MD5=[74fcc6a7440bc353f1a62926242456b5]
reverse link javax.swing.JPanel to nz.ac.vuw.ecs.swen225.gp30.render.GameVisuals--><path codeLine="25" d="M117,67.07 C117,78.86 117,92.51 117,106.85 " fill="none" id="javax.swing.JPanel-backto-nz.ac.vuw.ecs.swen225.gp30.render.GameVisuals" style="stroke: #A80036; stroke-width: 1.0;"/><polygon fill="none" points="110,67.01,117,47.01,124,67.01,110,67.01" style="stroke: #A80036; stroke-width: 1.0;"/><text fill="#888888" font-family="sans-serif" font-size="10" lengthAdjust="spacingAndGlyphs" textLength="185" x="21.5" y="394.1074">UMLDoclet 2.0.12, PlantUML 1.2020.16</text><!--MD5=[8652ee92d58fbfcd0879f89fdc7cd672]
@startuml
    set namespaceSeparator none
    hide empty fields
    hide empty methods

    class "<size:14>GameVisuals\n<size:10>nz.ac.vuw.ecs.swen225.gp30.render" as nz.ac.vuw.ecs.swen225.gp30.render.GameVisuals [[GameVisuals.html]] {
        +toggleInfo: boolean
        +imageMap: Map<String, BufferedImage>
        +loadImages(): void
        +setGame(GameWorld): void
        +setInfoText(String): void
        +toggleInfo(boolean): void
        +getTilesToRender(): Collection<Tile>
        +getScreenX(int): int
        +getScreenY(int): int
        +getTranslateX(): int
        +getTranslateY(): int
        +renderTiles(Graphics): void
        +renderChap(Graphics): void
        +renderMobs(Graphics): void
        +paintComponent(Graphics): void
    }

    class "<size:14>JPanel\n<size:10>javax.swing" as javax.swing.JPanel

    javax.swing.JPanel <|- - nz.ac.vuw.ecs.swen225.gp30.render.GameVisuals

    center footer UMLDoclet 2.0.12, PlantUML 1.2020.16
@enduml

PlantUML version 1.2020.16(Mon Aug 24 08:20:43 NZST 2020)
(APACHE source distribution)
Java Runtime: Java(TM) SE Runtime Environment
JVM: Java HotSpot(TM) 64-Bit Server VM
Default Encoding: Cp1252
Language: en
Country: NZ
--></g></svg>