<?xml version="1.0" encoding="UTF-8" standalone="no"?><svg xmlns="http://www.w3.org/2000/svg" xmlns:xlink="http://www.w3.org/1999/xlink" contentScriptType="application/ecmascript" contentStyleType="text/css" height="467px" preserveAspectRatio="none" style="width:489px;height:467px;" version="1.1" viewBox="0 0 489 467" width="489px" zoomAndPan="magnify"><defs><filter height="300%" id="f1pxv9cipzti5k" width="300%" x="-1" y="-1"><feGaussianBlur result="blurOut" stdDeviation="2.0"/><feColorMatrix in="blurOut" result="blurOut2" type="matrix" values="0 0 0 0 0 0 0 0 0 0 0 0 0 0 0 0 0 0 .4 0"/><feOffset dx="4.0" dy="4.0" in="blurOut2" result="blurOut3"/><feBlend in="SourceGraphic" in2="blurOut3" mode="normal"/></filter></defs><g><!--MD5=[9ffe9a2eeaff3461c2b13c7b0704939f]
cluster nz.ac.vuw.ecs.swen225.gp30.render--><polygon fill="#FFFFFF" filter="url(#f1pxv9cipzti5k)" points="16,130,268,130,275,153.6094,467,153.6094,467,438,16,438,16,130" style="stroke: #000000; stroke-width: 1.5;"/><line style="stroke: #000000; stroke-width: 1.5;" x1="16" x2="275" y1="153.6094" y2="153.6094"/><text fill="#000000" font-family="sans-serif" font-size="14" font-weight="bold" lengthAdjust="spacingAndGlyphs" textLength="246" x="20" y="146.5332">nz.ac.vuw.ecs.swen225.gp30.render</text><!--MD5=[535aab4de90d4dfa371a9b40d5438fc3]
cluster javax.swing--><polygon fill="#FFFFFF" filter="url(#f1pxv9cipzti5k)" points="91,6,178,6,185,29.6094,193,29.6094,193,106,91,106,91,6" style="stroke: #000000; stroke-width: 1.5;"/><line style="stroke: #000000; stroke-width: 1.5;" x1="91" x2="185" y1="29.6094" y2="29.6094"/><text fill="#000000" font-family="sans-serif" font-size="14" font-weight="bold" lengthAdjust="spacingAndGlyphs" textLength="81" x="95" y="22.5332">javax.swing</text><!--MD5=[cfc94bbffb5c39baaf7fe737f5df18c5]
class nz.ac.vuw.ecs.swen225.gp30.render.Audio--><a href="Audio.html" target="_top" title="Audio.html" xlink:actuate="onRequest" xlink:href="Audio.html" xlink:show="new" xlink:title="Audio.html" xlink:type="simple"><rect codeLine="3" fill="#FEFECE" filter="url(#f1pxv9cipzti5k)" height="89.5078" id="nz.ac.vuw.ecs.swen225.gp30.render.Audio" style="stroke: #A80036; stroke-width: 1.5;" width="163" x="287.5" y="249"/><ellipse cx="348.75" cy="265" fill="#ADD1B2" rx="11" ry="11" style="stroke: #A80036; stroke-width: 1.0;"/><path d="M351.5156,260.875 Q351.6719,260.6563 351.8594,260.5469 Q352.0469,260.4375 352.2656,260.4375 Q352.6406,260.4375 352.875,260.7031 Q353.1094,260.9531 353.1094,261.5625 L353.1094,263.0156 Q353.1094,263.625 352.875,263.8906 Q352.6406,264.1563 352.2656,264.1563 Q351.9219,264.1563 351.7188,263.9531 Q351.5156,263.7656 351.4063,263.25 Q351.3594,262.8906 351.1719,262.7031 Q350.8438,262.3281 350.2344,262.1094 Q349.625,261.8906 349,261.8906 Q348.2344,261.8906 347.5938,262.2188 Q346.9688,262.5469 346.4688,263.2969 Q345.9844,264.0469 345.9844,265.0781 L345.9844,266.1719 Q345.9844,267.4063 346.875,268.2344 Q347.7656,269.0469 349.3594,269.0469 Q350.2969,269.0469 350.9531,268.7969 Q351.3438,268.6406 351.7656,268.2031 Q352.0313,267.9375 352.1719,267.8594 Q352.3281,267.7813 352.5313,267.7813 Q352.8594,267.7813 353.1094,268.0469 Q353.375,268.2969 353.375,268.6406 Q353.375,268.9844 353.0313,269.3906 Q352.5313,269.9688 351.7344,270.2969 Q350.6563,270.75 349.3594,270.75 Q347.8438,270.75 346.6406,270.125 Q345.6563,269.625 344.9688,268.5625 Q344.2813,267.4844 344.2813,266.2031 L344.2813,265.0469 Q344.2813,263.7188 344.8906,262.5781 Q345.5156,261.4219 346.6094,260.8125 Q347.7031,260.1875 348.9375,260.1875 Q349.6719,260.1875 350.3125,260.3594 Q350.9688,260.5156 351.5156,260.875 Z "/><text fill="#000000" font-family="sans-serif" font-size="12" lengthAdjust="spacingAndGlyphs" textLength="32" x="369.25" y="269.9102">Audio</text><line style="stroke: #A80036; stroke-width: 1.5;" x1="288.5" x2="449.5" y1="281" y2="281"/><line style="stroke: #A80036; stroke-width: 1.5;" x1="288.5" x2="449.5" y1="289" y2="289"/><ellipse cx="298.5" cy="300" fill="#84BE84" rx="3" ry="3" style="stroke: #038048; stroke-width: 1.0;"/><text fill="#000000" font-family="sans-serif" font-size="11" lengthAdjust="spacingAndGlyphs" textLength="137" x="307.5" y="304.4189">setGame(GameWorld): void</text><ellipse cx="298.5" cy="313.8359" fill="#84BE84" rx="3" ry="3" style="stroke: #038048; stroke-width: 1.0;"/><text fill="#000000" font-family="sans-serif" font-size="11" lengthAdjust="spacingAndGlyphs" textLength="91" x="307.5" y="318.2549">loadSounds(): void</text><ellipse cx="298.5" cy="327.6719" fill="#84BE84" rx="3" ry="3" style="stroke: #038048; stroke-width: 1.0;"/><text fill="#000000" font-family="sans-serif" font-size="11" lengthAdjust="spacingAndGlyphs" textLength="85" x="307.5" y="332.0908">playSound(): void</text></a><!--MD5=[073d9a432b5ecb9af8df75a556da88b5]
class nz.ac.vuw.ecs.swen225.gp30.render.GameVisuals--><a href="GameVisuals.html" target="_top" title="GameVisuals.html" xlink:actuate="onRequest" xlink:href="GameVisuals.html" xlink:show="new" xlink:title="GameVisuals.html" xlink:type="simple"><rect codeLine="9" fill="#FEFECE" filter="url(#f1pxv9cipzti5k)" height="255.5391" id="nz.ac.vuw.ecs.swen225.gp30.render.GameVisuals" style="stroke: #A80036; stroke-width: 1.5;" width="220" x="32" y="166"/><ellipse cx="101.25" cy="182" fill="#ADD1B2" rx="11" ry="11" style="stroke: #A80036; stroke-width: 1.0;"/><path d="M104.0156,177.875 Q104.1719,177.6563 104.3594,177.5469 Q104.5469,177.4375 104.7656,177.4375 Q105.1406,177.4375 105.375,177.7031 Q105.6094,177.9531 105.6094,178.5625 L105.6094,180.0156 Q105.6094,180.625 105.375,180.8906 Q105.1406,181.1563 104.7656,181.1563 Q104.4219,181.1563 104.2188,180.9531 Q104.0156,180.7656 103.9063,180.25 Q103.8594,179.8906 103.6719,179.7031 Q103.3438,179.3281 102.7344,179.1094 Q102.125,178.8906 101.5,178.8906 Q100.7344,178.8906 100.0938,179.2188 Q99.4688,179.5469 98.9688,180.2969 Q98.4844,181.0469 98.4844,182.0781 L98.4844,183.1719 Q98.4844,184.4063 99.375,185.2344 Q100.2656,186.0469 101.8594,186.0469 Q102.7969,186.0469 103.4531,185.7969 Q103.8438,185.6406 104.2656,185.2031 Q104.5313,184.9375 104.6719,184.8594 Q104.8281,184.7813 105.0313,184.7813 Q105.3594,184.7813 105.6094,185.0469 Q105.875,185.2969 105.875,185.6406 Q105.875,185.9844 105.5313,186.3906 Q105.0313,186.9688 104.2344,187.2969 Q103.1563,187.75 101.8594,187.75 Q100.3438,187.75 99.1406,187.125 Q98.1563,186.625 97.4688,185.5625 Q96.7813,184.4844 96.7813,183.2031 L96.7813,182.0469 Q96.7813,180.7188 97.3906,179.5781 Q98.0156,178.4219 99.1094,177.8125 Q100.2031,177.1875 101.4375,177.1875 Q102.1719,177.1875 102.8125,177.3594 Q103.4688,177.5156 104.0156,177.875 Z "/><text fill="#000000" font-family="sans-serif" font-size="12" lengthAdjust="spacingAndGlyphs" textLength="73" x="121.75" y="186.9102">GameVisuals</text><line style="stroke: #A80036; stroke-width: 1.5;" x1="33" x2="251" y1="198" y2="198"/><ellipse cx="43" cy="209" fill="none" rx="3" ry="3" style="stroke: #038048; stroke-width: 1.0;"/><text fill="#000000" font-family="sans-serif" font-size="11" lengthAdjust="spacingAndGlyphs" textLength="91" x="52" y="213.4189">toggleInfo: boolean</text><ellipse cx="43" cy="222.8359" fill="none" rx="3" ry="3" style="stroke: #038048; stroke-width: 1.0;"/><text fill="#000000" font-family="sans-serif" font-size="11" lengthAdjust="spacingAndGlyphs" textLength="194" x="52" y="227.2549">imageMap: Map&lt;String, BufferedImage&gt;</text><line style="stroke: #A80036; stroke-width: 1.5;" x1="33" x2="251" y1="233.6719" y2="233.6719"/><ellipse cx="43" cy="244.6719" fill="#84BE84" rx="3" ry="3" style="stroke: #038048; stroke-width: 1.0;"/><text fill="#000000" font-family="sans-serif" font-size="11" lengthAdjust="spacingAndGlyphs" textLength="90" x="52" y="249.0908">loadImages(): void</text><ellipse cx="43" cy="258.5078" fill="#84BE84" rx="3" ry="3" style="stroke: #038048; stroke-width: 1.0;"/><text fill="#000000" font-family="sans-serif" font-size="11" lengthAdjust="spacingAndGlyphs" textLength="137" x="52" y="262.9268">setGame(GameWorld): void</text><ellipse cx="43" cy="272.3438" fill="#84BE84" rx="3" ry="3" style="stroke: #038048; stroke-width: 1.0;"/><text fill="#000000" font-family="sans-serif" font-size="11" lengthAdjust="spacingAndGlyphs" textLength="117" x="52" y="276.7627">setInfoText(String): void</text><ellipse cx="43" cy="286.1797" fill="#84BE84" rx="3" ry="3" style="stroke: #038048; stroke-width: 1.0;"/><text fill="#000000" font-family="sans-serif" font-size="11" lengthAdjust="spacingAndGlyphs" textLength="119" x="52" y="290.5986">toggleInfo(boolean): void</text><ellipse cx="43" cy="300.0156" fill="#84BE84" rx="3" ry="3" style="stroke: #038048; stroke-width: 1.0;"/><text fill="#000000" font-family="sans-serif" font-size="11" lengthAdjust="spacingAndGlyphs" textLength="177" x="52" y="304.4346">getTilesToRender(): Collection&lt;Tile&gt;</text><ellipse cx="43" cy="313.8516" fill="#84BE84" rx="3" ry="3" style="stroke: #038048; stroke-width: 1.0;"/><text fill="#000000" font-family="sans-serif" font-size="11" lengthAdjust="spacingAndGlyphs" textLength="93" x="52" y="318.2705">getScreenX(int): int</text><ellipse cx="43" cy="327.6875" fill="#84BE84" rx="3" ry="3" style="stroke: #038048; stroke-width: 1.0;"/><text fill="#000000" font-family="sans-serif" font-size="11" lengthAdjust="spacingAndGlyphs" textLength="93" x="52" y="332.1064">getScreenY(int): int</text><ellipse cx="43" cy="341.5234" fill="#84BE84" rx="3" ry="3" style="stroke: #038048; stroke-width: 1.0;"/><text fill="#000000" font-family="sans-serif" font-size="11" lengthAdjust="spacingAndGlyphs" textLength="93" x="52" y="345.9424">getTranslateX(): int</text><ellipse cx="43" cy="355.3594" fill="#84BE84" rx="3" ry="3" style="stroke: #038048; stroke-width: 1.0;"/><text fill="#000000" font-family="sans-serif" font-size="11" lengthAdjust="spacingAndGlyphs" textLength="93" x="52" y="359.7783">getTranslateY(): int</text><ellipse cx="43" cy="369.1953" fill="#84BE84" rx="3" ry="3" style="stroke: #038048; stroke-width: 1.0;"/><text fill="#000000" font-family="sans-serif" font-size="11" lengthAdjust="spacingAndGlyphs" textLength="134" x="52" y="373.6143">renderTiles(Graphics): void</text><ellipse cx="43" cy="383.0313" fill="#84BE84" rx="3" ry="3" style="stroke: #038048; stroke-width: 1.0;"/><text fill="#000000" font-family="sans-serif" font-size="11" lengthAdjust="spacingAndGlyphs" textLength="137" x="52" y="387.4502">renderChap(Graphics): void</text><ellipse cx="43" cy="396.8672" fill="#84BE84" rx="3" ry="3" style="stroke: #038048; stroke-width: 1.0;"/><text fill="#000000" font-family="sans-serif" font-size="11" lengthAdjust="spacingAndGlyphs" textLength="138" x="52" y="401.2861">renderMobs(Graphics): void</text><ellipse cx="43" cy="410.7031" fill="#84BE84" rx="3" ry="3" style="stroke: #038048; stroke-width: 1.0;"/><text fill="#000000" font-family="sans-serif" font-size="11" lengthAdjust="spacingAndGlyphs" textLength="158" x="52" y="415.1221">paintComponent(Graphics): void</text></a><!--MD5=[56a185cb33bdc7c23303e5865f20a19b]
class javax.swing.JPanel--><rect codeLine="31" fill="#FEFECE" filter="url(#f1pxv9cipzti5k)" height="48" id="javax.swing.JPanel" style="stroke: #A80036; stroke-width: 1.5;" width="70" x="107" y="42"/><ellipse cx="122" cy="58" fill="#ADD1B2" rx="11" ry="11" style="stroke: #A80036; stroke-width: 1.0;"/><path d="M124.7656,53.875 Q124.9219,53.6563 125.1094,53.5469 Q125.2969,53.4375 125.5156,53.4375 Q125.8906,53.4375 126.125,53.7031 Q126.3594,53.9531 126.3594,54.5625 L126.3594,56.0156 Q126.3594,56.625 126.125,56.8906 Q125.8906,57.1563 125.5156,57.1563 Q125.1719,57.1563 124.9688,56.9531 Q124.7656,56.7656 124.6563,56.25 Q124.6094,55.8906 124.4219,55.7031 Q124.0938,55.3281 123.4844,55.1094 Q122.875,54.8906 122.25,54.8906 Q121.4844,54.8906 120.8438,55.2188 Q120.2188,55.5469 119.7188,56.2969 Q119.2344,57.0469 119.2344,58.0781 L119.2344,59.1719 Q119.2344,60.4063 120.125,61.2344 Q121.0156,62.0469 122.6094,62.0469 Q123.5469,62.0469 124.2031,61.7969 Q124.5938,61.6406 125.0156,61.2031 Q125.2813,60.9375 125.4219,60.8594 Q125.5781,60.7813 125.7813,60.7813 Q126.1094,60.7813 126.3594,61.0469 Q126.625,61.2969 126.625,61.6406 Q126.625,61.9844 126.2813,62.3906 Q125.7813,62.9688 124.9844,63.2969 Q123.9063,63.75 122.6094,63.75 Q121.0938,63.75 119.8906,63.125 Q118.9063,62.625 118.2188,61.5625 Q117.5313,60.4844 117.5313,59.2031 L117.5313,58.0469 Q117.5313,56.7188 118.1406,55.5781 Q118.7656,54.4219 119.8594,53.8125 Q120.9531,53.1875 122.1875,53.1875 Q122.9219,53.1875 123.5625,53.3594 Q124.2188,53.5156 124.7656,53.875 Z "/><text fill="#000000" font-family="sans-serif" font-size="12" lengthAdjust="spacingAndGlyphs" textLength="38" x="136" y="62.9102">JPanel</text><line style="stroke: #A80036; stroke-width: 1.5;" x1="108" x2="176" y1="74" y2="74"/><line style="stroke: #A80036; stroke-width: 1.5;" x1="108" x2="176" y1="82" y2="82"/><!--MD5=[74fcc6a7440bc353f1a62926242456b5]
reverse link javax.swing.JPanel to nz.ac.vuw.ecs.swen225.gp30.render.GameVisuals--><path codeLine="27" d="M142,110.54 C142,126.7 142,145.96 142,165.82 " fill="none" id="javax.swing.JPanel-backto-nz.ac.vuw.ecs.swen225.gp30.render.GameVisuals" style="stroke: #A80036; stroke-width: 1.0;"/><polygon fill="none" points="135,110.33,142,90.33,149,110.33,135,110.33" style="stroke: #A80036; stroke-width: 1.0;"/><text fill="#888888" font-family="sans-serif" font-size="10" lengthAdjust="spacingAndGlyphs" textLength="185" x="143" y="454.3809">UMLDoclet 2.0.12, PlantUML 1.2020.16</text><!--MD5=[93a477662e3193be6b8abc1adf181ca1]
@startuml
    namespace nz.ac.vuw.ecs.swen225.gp30.render {

        class Audio [[Audio.html]] {
            +setGame(GameWorld): void
            +loadSounds(): void
            +playSound(): void
        }

        class GameVisuals [[GameVisuals.html]] {
            +toggleInfo: boolean
            +imageMap: Map<String, BufferedImage>
            +loadImages(): void
            +setGame(GameWorld): void
            +setInfoText(String): void
            +toggleInfo(boolean): void
            +getTilesToRender(): Collection<Tile>
            +getScreenX(int): int
            +getScreenY(int): int
            +getTranslateX(): int
            +getTranslateY(): int
            +renderTiles(Graphics): void
            +renderChap(Graphics): void
            +renderMobs(Graphics): void
            +paintComponent(Graphics): void
        }

        javax.swing.JPanel <|- - GameVisuals
    }

    namespace javax.swing {
        class JPanel {
        }
    }

    center footer UMLDoclet 2.0.12, PlantUML 1.2020.16
@enduml

PlantUML version 1.2020.16(Mon Aug 24 08:20:43 NZST 2020)
(APACHE source distribution)
Java Runtime: Java(TM) SE Runtime Environment
JVM: Java HotSpot(TM) 64-Bit Server VM
Default Encoding: Cp1252
Language: en
Country: NZ
--></g></svg>