<?xml version="1.0" encoding="UTF-8" standalone="no"?><svg xmlns="http://www.w3.org/2000/svg" xmlns:xlink="http://www.w3.org/1999/xlink" contentScriptType="application/ecmascript" contentStyleType="text/css" height="218px" preserveAspectRatio="none" style="width:324px;height:218px;" version="1.1" viewBox="0 0 324 218" width="324px" zoomAndPan="magnify"><defs><filter height="300%" id="f1wzk5wccjdoos" width="300%" x="-1" y="-1"><feGaussianBlur result="blurOut" stdDeviation="2.0"/><feColorMatrix in="blurOut" result="blurOut2" type="matrix" values="0 0 0 0 0 0 0 0 0 0 0 0 0 0 0 0 0 0 .4 0"/><feOffset dx="4.0" dy="4.0" in="blurOut2" result="blurOut3"/><feBlend in="SourceGraphic" in2="blurOut3" mode="normal"/></filter></defs><g><!--MD5=[fa1e8ea7513e78bedbc044657485136e]
cluster nz.ac.vuw.ecs.swen225.gp30.maze.item--><polygon fill="#FFFFFF" filter="url(#f1wzk5wccjdoos)" points="16,6,292,6,299,29.6094,302,29.6094,302,189,16,189,16,6" style="stroke: #000000; stroke-width: 1.5;"/><line style="stroke: #000000; stroke-width: 1.5;" x1="16" x2="299" y1="29.6094" y2="29.6094"/><text fill="#000000" font-family="sans-serif" font-size="14" font-weight="bold" lengthAdjust="spacingAndGlyphs" textLength="270" x="20" y="22.5332">nz.ac.vuw.ecs.swen225.gp30.maze.item</text><!--MD5=[8428cf4be8245b230888853a1b872f7e]
class nz.ac.vuw.ecs.swen225.gp30.maze.item.Item--><a href="Item.html" target="_top" title="Item.html" xlink:actuate="onRequest" xlink:href="Item.html" xlink:show="new" xlink:title="Item.html" xlink:type="simple"><rect codeLine="3" fill="#FEFECE" filter="url(#f1wzk5wccjdoos)" height="131.0156" id="nz.ac.vuw.ecs.swen225.gp30.maze.item.Item" style="stroke: #A80036; stroke-width: 1.5;" width="147" x="85.5" y="42"/><ellipse cx="143.25" cy="58" fill="#EB937F" rx="11" ry="11" style="stroke: #A80036; stroke-width: 1.0;"/><path d="M142.1094,58.7969 L142.1094,61.2969 L146.4375,61.2969 L146.4375,60.375 Q146.4375,59.7656 146.6719,59.5 Q146.9219,59.2344 147.2969,59.2344 Q147.6719,59.2344 147.9063,59.5 Q148.1406,59.7656 148.1406,60.375 L148.1406,63 L140.1406,63 Q139.5156,63 139.25,62.7656 Q139,62.5313 139,62.1406 Q139,61.7656 139.2656,61.5313 Q139.5313,61.2969 140.1406,61.2969 L140.4063,61.2969 L140.4063,54.6406 L140.1406,54.6406 Q139.5156,54.6406 139.25,54.4063 Q139,54.1719 139,53.7813 Q139,53.4063 139.25,53.1719 Q139.5156,52.9375 140.1406,52.9375 L147.7656,52.9375 L147.7656,55.5313 Q147.7656,56.1406 147.5313,56.4063 Q147.3125,56.6563 146.9219,56.6563 Q146.5469,56.6563 146.3125,56.4063 Q146.0781,56.1406 146.0781,55.5313 L146.0781,54.6406 L142.1094,54.6406 L142.1094,57.0938 L143.5938,57.0938 Q143.5938,56.4375 143.7188,56.25 Q143.9844,55.8438 144.4531,55.8438 Q144.8281,55.8438 145.0625,56.1094 Q145.2969,56.3594 145.2969,56.9688 L145.2969,58.9375 Q145.2969,59.4844 145.1719,59.6719 Q144.9063,60.0625 144.4531,60.0625 Q143.9844,60.0625 143.7188,59.6563 Q143.5938,59.4688 143.5938,58.7969 L142.1094,58.7969 Z "/><text fill="#000000" font-family="sans-serif" font-size="12" lengthAdjust="spacingAndGlyphs" textLength="23" x="163.75" y="62.9102">Item</text><line style="stroke: #A80036; stroke-width: 1.5;" x1="86.5" x2="231.5" y1="74" y2="74"/><ellipse cx="96.5" cy="85" fill="none" rx="3" ry="3" style="stroke: #038048; stroke-width: 1.0;"/><text fill="#000000" font-family="sans-serif" font-size="11" lengthAdjust="spacingAndGlyphs" text-decoration="underline" textLength="55" x="105.5" y="89.4189">KEY_BLUE</text><ellipse cx="96.5" cy="98.8359" fill="none" rx="3" ry="3" style="stroke: #038048; stroke-width: 1.0;"/><text fill="#000000" font-family="sans-serif" font-size="11" lengthAdjust="spacingAndGlyphs" text-decoration="underline" textLength="66" x="105.5" y="103.2549">KEY_GREEN</text><ellipse cx="96.5" cy="112.6719" fill="none" rx="3" ry="3" style="stroke: #038048; stroke-width: 1.0;"/><text fill="#000000" font-family="sans-serif" font-size="11" lengthAdjust="spacingAndGlyphs" text-decoration="underline" textLength="50" x="105.5" y="117.0908">KEY_RED</text><ellipse cx="96.5" cy="126.5078" fill="none" rx="3" ry="3" style="stroke: #038048; stroke-width: 1.0;"/><text fill="#000000" font-family="sans-serif" font-size="11" lengthAdjust="spacingAndGlyphs" text-decoration="underline" textLength="72" x="105.5" y="130.9268">KEY_YELLOW</text><line style="stroke: #A80036; stroke-width: 1.5;" x1="86.5" x2="231.5" y1="137.3438" y2="137.3438"/><ellipse cx="96.5" cy="148.3438" fill="#84BE84" rx="3" ry="3" style="stroke: #038048; stroke-width: 1.0;"/><text fill="#000000" font-family="sans-serif" font-size="11" lengthAdjust="spacingAndGlyphs" textLength="121" x="105.5" y="152.7627">isConsumable(): boolean</text><ellipse cx="96.5" cy="162.1797" fill="#84BE84" rx="3" ry="3" style="stroke: #038048; stroke-width: 1.0;"/><text fill="#000000" font-family="sans-serif" font-size="11" lengthAdjust="spacingAndGlyphs" textLength="75" x="105.5" y="166.5986">getChar(): char</text></a><text fill="#888888" font-family="sans-serif" font-size="10" lengthAdjust="spacingAndGlyphs" textLength="185" x="60.5" y="205.3809">UMLDoclet 2.0.12, PlantUML 1.2020.16</text><!--MD5=[d318b5817aea8243dfa804b1f6603ac1]
@startuml
    namespace nz.ac.vuw.ecs.swen225.gp30.maze.item {

        enum Item [[Item.html]] {
            {static} +KEY_BLUE
            {static} +KEY_GREEN
            {static} +KEY_RED
            {static} +KEY_YELLOW
            +isConsumable(): boolean
            +getChar(): char
        }

    }

    center footer UMLDoclet 2.0.12, PlantUML 1.2020.16
@enduml

PlantUML version 1.2020.16(Mon Aug 24 08:20:43 NZST 2020)
(APACHE source distribution)
Java Runtime: Java(TM) SE Runtime Environment
JVM: Java HotSpot(TM) 64-Bit Server VM
Default Encoding: Cp1252
Language: en
Country: NZ
--></g></svg>