<?xml version="1.0" encoding="UTF-8" standalone="no"?><svg xmlns="http://www.w3.org/2000/svg" xmlns:xlink="http://www.w3.org/1999/xlink" contentScriptType="application/ecmascript" contentStyleType="text/css" height="113px" preserveAspectRatio="none" style="width:262px;height:113px;" version="1.1" viewBox="0 0 262 113" width="262px" zoomAndPan="magnify"><defs><filter height="300%" id="f1gc97hj19lzp4" width="300%" x="-1" y="-1"><feGaussianBlur result="blurOut" stdDeviation="2.0"/><feColorMatrix in="blurOut" result="blurOut2" type="matrix" values="0 0 0 0 0 0 0 0 0 0 0 0 0 0 0 0 0 0 .4 0"/><feOffset dx="4.0" dy="4.0" in="blurOut2" result="blurOut3"/><feBlend in="SourceGraphic" in2="blurOut3" mode="normal"/></filter></defs><g><!--MD5=[28418f956f7edf3bc380663b36178962]
class nz.ac.vuw.ecs.swen225.gp30.recnplay.LoadJSON--><a href="LoadJSON.html" target="_top" title="LoadJSON.html" xlink:actuate="onRequest" xlink:href="LoadJSON.html" xlink:show="new" xlink:title="LoadJSON.html" xlink:type="simple"><rect codeLine="5" fill="#FEFECE" filter="url(#f1gc97hj19lzp4)" height="75.8594" id="nz.ac.vuw.ecs.swen225.gp30.recnplay.LoadJSON" style="stroke: #A80036; stroke-width: 1.5;" width="236" x="7" y="7"/><ellipse cx="33.25" cy="27.0938" fill="#ADD1B2" rx="11" ry="11" style="stroke: #A80036; stroke-width: 1.0;"/><path d="M36.0156,22.9688 Q36.1719,22.75 36.3594,22.6406 Q36.5469,22.5313 36.7656,22.5313 Q37.1406,22.5313 37.375,22.7969 Q37.6094,23.0469 37.6094,23.6563 L37.6094,25.1094 Q37.6094,25.7188 37.375,25.9844 Q37.1406,26.25 36.7656,26.25 Q36.4219,26.25 36.2188,26.0469 Q36.0156,25.8594 35.9063,25.3438 Q35.8594,24.9844 35.6719,24.7969 Q35.3438,24.4219 34.7344,24.2031 Q34.125,23.9844 33.5,23.9844 Q32.7344,23.9844 32.0938,24.3125 Q31.4688,24.6406 30.9688,25.3906 Q30.4844,26.1406 30.4844,27.1719 L30.4844,28.2656 Q30.4844,29.5 31.375,30.3281 Q32.2656,31.1406 33.8594,31.1406 Q34.7969,31.1406 35.4531,30.8906 Q35.8438,30.7344 36.2656,30.2969 Q36.5313,30.0313 36.6719,29.9531 Q36.8281,29.875 37.0313,29.875 Q37.3594,29.875 37.6094,30.1406 Q37.875,30.3906 37.875,30.7344 Q37.875,31.0781 37.5313,31.4844 Q37.0313,32.0625 36.2344,32.3906 Q35.1563,32.8438 33.8594,32.8438 Q32.3438,32.8438 31.1406,32.2188 Q30.1563,31.7188 29.4688,30.6563 Q28.7813,29.5781 28.7813,28.2969 L28.7813,27.1406 Q28.7813,25.8125 29.3906,24.6719 Q30.0156,23.5156 31.1094,22.9063 Q32.2031,22.2813 33.4375,22.2813 Q34.1719,22.2813 34.8125,22.4531 Q35.4688,22.6094 36.0156,22.9688 Z "/><text fill="#000000" font-family="sans-serif" font-size="14" lengthAdjust="spacingAndGlyphs" textLength="69" x="104.75" y="26.5332">LoadJSON</text><text fill="#000000" font-family="sans-serif" font-size="10" lengthAdjust="spacingAndGlyphs" textLength="179" x="49.75" y="39.9902">nz.ac.vuw.ecs.swen225.gp30.recnplay</text><line style="stroke: #A80036; stroke-width: 1.5;" x1="8" x2="242" y1="47.1875" y2="47.1875"/><ellipse cx="18" cy="58.1875" fill="#84BE84" rx="3" ry="3" style="stroke: #038048; stroke-width: 1.0;"/><text fill="#000000" font-family="sans-serif" font-size="11" lengthAdjust="spacingAndGlyphs" textLength="210" x="27" y="62.6064">loadPlayerMoves(String): ArrayList&lt;String&gt;</text><ellipse cx="18" cy="72.0234" fill="#84BE84" rx="3" ry="3" style="stroke: #038048; stroke-width: 1.0;"/><text fill="#000000" font-family="sans-serif" font-size="11" lengthAdjust="spacingAndGlyphs" textLength="122" x="27" y="76.4424">loadLevel(String): Integer</text></a><text fill="#888888" font-family="sans-serif" font-size="10" lengthAdjust="spacingAndGlyphs" textLength="185" x="32.5" y="100.2402">UMLDoclet 2.0.12, PlantUML 1.2020.16</text><!--MD5=[79699c0e778d000ab731729c00699157]
@startuml
    set namespaceSeparator none
    hide empty fields
    hide empty methods

    class "<size:14>LoadJSON\n<size:10>nz.ac.vuw.ecs.swen225.gp30.recnplay" as nz.ac.vuw.ecs.swen225.gp30.recnplay.LoadJSON [[LoadJSON.html]] {
        +loadPlayerMoves(String): ArrayList<String>
        +loadLevel(String): Integer
    }

    center footer UMLDoclet 2.0.12, PlantUML 1.2020.16
@enduml

PlantUML version 1.2020.16(Mon Aug 24 08:20:43 NZST 2020)
(APACHE source distribution)
Java Runtime: Java(TM) SE Runtime Environment
JVM: Java HotSpot(TM) 64-Bit Server VM
Default Encoding: Cp1252
Language: en
Country: NZ
--></g></svg>