<?xml version="1.0" encoding="UTF-8" standalone="no"?><svg xmlns="http://www.w3.org/2000/svg" xmlns:xlink="http://www.w3.org/1999/xlink" contentScriptType="application/ecmascript" contentStyleType="text/css" height="478px" preserveAspectRatio="none" style="width:541px;height:478px;" version="1.1" viewBox="0 0 541 478" width="541px" zoomAndPan="magnify"><defs><filter height="300%" id="f1l63bph8q68r" width="300%" x="-1" y="-1"><feGaussianBlur result="blurOut" stdDeviation="2.0"/><feColorMatrix in="blurOut" result="blurOut2" type="matrix" values="0 0 0 0 0 0 0 0 0 0 0 0 0 0 0 0 0 0 .4 0"/><feOffset dx="4.0" dy="4.0" in="blurOut2" result="blurOut3"/><feBlend in="SourceGraphic" in2="blurOut3" mode="normal"/></filter></defs><g><!--MD5=[eae6366c606f94df4cf85ae445172e6e]
cluster nz.ac.vuw.ecs.swen225.gp30.recnplay--><polygon fill="#FFFFFF" filter="url(#f1l63bph8q68r)" points="16,6,283,6,290,29.6094,519,29.6094,519,449,16,449,16,6" style="stroke: #000000; stroke-width: 1.5;"/><line style="stroke: #000000; stroke-width: 1.5;" x1="16" x2="290" y1="29.6094" y2="29.6094"/><text fill="#000000" font-family="sans-serif" font-size="14" font-weight="bold" lengthAdjust="spacingAndGlyphs" textLength="261" x="20" y="22.5332">nz.ac.vuw.ecs.swen225.gp30.recnplay</text><!--MD5=[28418f956f7edf3bc380663b36178962]
class nz.ac.vuw.ecs.swen225.gp30.recnplay.LoadJSON--><a href="LoadJSON.html" target="_top" title="LoadJSON.html" xlink:actuate="onRequest" xlink:href="LoadJSON.html" xlink:show="new" xlink:title="LoadJSON.html" xlink:type="simple"><rect codeLine="3" fill="#FEFECE" filter="url(#f1l63bph8q68r)" height="75.6719" id="nz.ac.vuw.ecs.swen225.gp30.recnplay.LoadJSON" style="stroke: #A80036; stroke-width: 1.5;" width="236" x="32" y="55.5"/><ellipse cx="115.75" cy="71.5" fill="#ADD1B2" rx="11" ry="11" style="stroke: #A80036; stroke-width: 1.0;"/><path d="M118.5156,67.375 Q118.6719,67.1563 118.8594,67.0469 Q119.0469,66.9375 119.2656,66.9375 Q119.6406,66.9375 119.875,67.2031 Q120.1094,67.4531 120.1094,68.0625 L120.1094,69.5156 Q120.1094,70.125 119.875,70.3906 Q119.6406,70.6563 119.2656,70.6563 Q118.9219,70.6563 118.7188,70.4531 Q118.5156,70.2656 118.4063,69.75 Q118.3594,69.3906 118.1719,69.2031 Q117.8438,68.8281 117.2344,68.6094 Q116.625,68.3906 116,68.3906 Q115.2344,68.3906 114.5938,68.7188 Q113.9688,69.0469 113.4688,69.7969 Q112.9844,70.5469 112.9844,71.5781 L112.9844,72.6719 Q112.9844,73.9063 113.875,74.7344 Q114.7656,75.5469 116.3594,75.5469 Q117.2969,75.5469 117.9531,75.2969 Q118.3438,75.1406 118.7656,74.7031 Q119.0313,74.4375 119.1719,74.3594 Q119.3281,74.2813 119.5313,74.2813 Q119.8594,74.2813 120.1094,74.5469 Q120.375,74.7969 120.375,75.1406 Q120.375,75.4844 120.0313,75.8906 Q119.5313,76.4688 118.7344,76.7969 Q117.6563,77.25 116.3594,77.25 Q114.8438,77.25 113.6406,76.625 Q112.6563,76.125 111.9688,75.0625 Q111.2813,73.9844 111.2813,72.7031 L111.2813,71.5469 Q111.2813,70.2188 111.8906,69.0781 Q112.5156,67.9219 113.6094,67.3125 Q114.7031,66.6875 115.9375,66.6875 Q116.6719,66.6875 117.3125,66.8594 Q117.9688,67.0156 118.5156,67.375 Z "/><text fill="#000000" font-family="sans-serif" font-size="12" lengthAdjust="spacingAndGlyphs" textLength="60" x="136.25" y="76.4102">LoadJSON</text><line style="stroke: #A80036; stroke-width: 1.5;" x1="33" x2="267" y1="87.5" y2="87.5"/><line style="stroke: #A80036; stroke-width: 1.5;" x1="33" x2="267" y1="95.5" y2="95.5"/><ellipse cx="43" cy="106.5" fill="#84BE84" rx="3" ry="3" style="stroke: #038048; stroke-width: 1.0;"/><text fill="#000000" font-family="sans-serif" font-size="11" lengthAdjust="spacingAndGlyphs" textLength="210" x="52" y="110.9189">loadPlayerMoves(String): ArrayList&lt;String&gt;</text><ellipse cx="43" cy="120.3359" fill="#84BE84" rx="3" ry="3" style="stroke: #038048; stroke-width: 1.0;"/><text fill="#000000" font-family="sans-serif" font-size="11" lengthAdjust="spacingAndGlyphs" textLength="122" x="52" y="124.7549">loadLevel(String): Integer</text></a><!--MD5=[387b28f7b8695d6a6a2a0d3f42088b93]
class nz.ac.vuw.ecs.swen225.gp30.recnplay.Record--><a href="Record.html" target="_top" title="Record.html" xlink:actuate="onRequest" xlink:href="Record.html" xlink:show="new" xlink:title="Record.html" xlink:type="simple"><rect codeLine="8" fill="#FEFECE" filter="url(#f1l63bph8q68r)" height="103.3438" id="nz.ac.vuw.ecs.swen225.gp30.recnplay.Record" style="stroke: #A80036; stroke-width: 1.5;" width="200" x="303" y="42"/><ellipse cx="378.75" cy="58" fill="#ADD1B2" rx="11" ry="11" style="stroke: #A80036; stroke-width: 1.0;"/><path d="M381.5156,53.875 Q381.6719,53.6563 381.8594,53.5469 Q382.0469,53.4375 382.2656,53.4375 Q382.6406,53.4375 382.875,53.7031 Q383.1094,53.9531 383.1094,54.5625 L383.1094,56.0156 Q383.1094,56.625 382.875,56.8906 Q382.6406,57.1563 382.2656,57.1563 Q381.9219,57.1563 381.7188,56.9531 Q381.5156,56.7656 381.4063,56.25 Q381.3594,55.8906 381.1719,55.7031 Q380.8438,55.3281 380.2344,55.1094 Q379.625,54.8906 379,54.8906 Q378.2344,54.8906 377.5938,55.2188 Q376.9688,55.5469 376.4688,56.2969 Q375.9844,57.0469 375.9844,58.0781 L375.9844,59.1719 Q375.9844,60.4063 376.875,61.2344 Q377.7656,62.0469 379.3594,62.0469 Q380.2969,62.0469 380.9531,61.7969 Q381.3438,61.6406 381.7656,61.2031 Q382.0313,60.9375 382.1719,60.8594 Q382.3281,60.7813 382.5313,60.7813 Q382.8594,60.7813 383.1094,61.0469 Q383.375,61.2969 383.375,61.6406 Q383.375,61.9844 383.0313,62.3906 Q382.5313,62.9688 381.7344,63.2969 Q380.6563,63.75 379.3594,63.75 Q377.8438,63.75 376.6406,63.125 Q375.6563,62.625 374.9688,61.5625 Q374.2813,60.4844 374.2813,59.2031 L374.2813,58.0469 Q374.2813,56.7188 374.8906,55.5781 Q375.5156,54.4219 376.6094,53.8125 Q377.7031,53.1875 378.9375,53.1875 Q379.6719,53.1875 380.3125,53.3594 Q380.9688,53.5156 381.5156,53.875 Z "/><text fill="#000000" font-family="sans-serif" font-size="12" lengthAdjust="spacingAndGlyphs" textLength="40" x="399.25" y="62.9102">Record</text><line style="stroke: #A80036; stroke-width: 1.5;" x1="304" x2="502" y1="74" y2="74"/><line style="stroke: #A80036; stroke-width: 1.5;" x1="304" x2="502" y1="82" y2="82"/><ellipse cx="314" cy="93" fill="#84BE84" rx="3" ry="3" style="stroke: #038048; stroke-width: 1.0;"/><text fill="#000000" font-family="sans-serif" font-size="11" lengthAdjust="spacingAndGlyphs" textLength="161" x="323" y="97.4189">storePlayerMove(Move, int): void</text><ellipse cx="314" cy="106.8359" fill="#84BE84" rx="3" ry="3" style="stroke: #038048; stroke-width: 1.0;"/><text fill="#000000" font-family="sans-serif" font-size="11" lengthAdjust="spacingAndGlyphs" textLength="119" x="323" y="111.2549">storeLevel(Integer): void</text><ellipse cx="314" cy="120.6719" fill="#84BE84" rx="3" ry="3" style="stroke: #038048; stroke-width: 1.0;"/><text fill="#000000" font-family="sans-serif" font-size="11" lengthAdjust="spacingAndGlyphs" textLength="174" x="323" y="125.0908">convertMoveToString(Move): String</text><ellipse cx="314" cy="134.5078" fill="#84BE84" rx="3" ry="3" style="stroke: #038048; stroke-width: 1.0;"/><text fill="#000000" font-family="sans-serif" font-size="11" lengthAdjust="spacingAndGlyphs" textLength="111" x="323" y="138.9268">writeJsonToFile(): void</text></a><!--MD5=[c77131058ba3f6d4bc2530718dff30e2]
class nz.ac.vuw.ecs.swen225.gp30.recnplay.Replay--><a href="Replay.html" target="_top" title="Replay.html" xlink:actuate="onRequest" xlink:href="Replay.html" xlink:show="new" xlink:title="Replay.html" xlink:type="simple"><rect codeLine="15" fill="#FEFECE" filter="url(#f1l63bph8q68r)" height="227.8672" id="nz.ac.vuw.ecs.swen225.gp30.recnplay.Replay" style="stroke: #A80036; stroke-width: 1.5;" width="221" x="39.5" y="205"/><ellipse cx="126.25" cy="221" fill="#ADD1B2" rx="11" ry="11" style="stroke: #A80036; stroke-width: 1.0;"/><path d="M129.0156,216.875 Q129.1719,216.6563 129.3594,216.5469 Q129.5469,216.4375 129.7656,216.4375 Q130.1406,216.4375 130.375,216.7031 Q130.6094,216.9531 130.6094,217.5625 L130.6094,219.0156 Q130.6094,219.625 130.375,219.8906 Q130.1406,220.1563 129.7656,220.1563 Q129.4219,220.1563 129.2188,219.9531 Q129.0156,219.7656 128.9063,219.25 Q128.8594,218.8906 128.6719,218.7031 Q128.3438,218.3281 127.7344,218.1094 Q127.125,217.8906 126.5,217.8906 Q125.7344,217.8906 125.0938,218.2188 Q124.4688,218.5469 123.9688,219.2969 Q123.4844,220.0469 123.4844,221.0781 L123.4844,222.1719 Q123.4844,223.4063 124.375,224.2344 Q125.2656,225.0469 126.8594,225.0469 Q127.7969,225.0469 128.4531,224.7969 Q128.8438,224.6406 129.2656,224.2031 Q129.5313,223.9375 129.6719,223.8594 Q129.8281,223.7813 130.0313,223.7813 Q130.3594,223.7813 130.6094,224.0469 Q130.875,224.2969 130.875,224.6406 Q130.875,224.9844 130.5313,225.3906 Q130.0313,225.9688 129.2344,226.2969 Q128.1563,226.75 126.8594,226.75 Q125.3438,226.75 124.1406,226.125 Q123.1563,225.625 122.4688,224.5625 Q121.7813,223.4844 121.7813,222.2031 L121.7813,221.0469 Q121.7813,219.7188 122.3906,218.5781 Q123.0156,217.4219 124.1094,216.8125 Q125.2031,216.1875 126.4375,216.1875 Q127.1719,216.1875 127.8125,216.3594 Q128.4688,216.5156 129.0156,216.875 Z "/><text fill="#000000" font-family="sans-serif" font-size="12" lengthAdjust="spacingAndGlyphs" textLength="39" x="146.75" y="225.9102">Replay</text><line style="stroke: #A80036; stroke-width: 1.5;" x1="40.5" x2="259.5" y1="237" y2="237"/><line style="stroke: #A80036; stroke-width: 1.5;" x1="40.5" x2="259.5" y1="245" y2="245"/><ellipse cx="50.5" cy="256" fill="#84BE84" rx="3" ry="3" style="stroke: #038048; stroke-width: 1.0;"/><text fill="#000000" font-family="sans-serif" font-size="11" lengthAdjust="spacingAndGlyphs" textLength="125" x="59.5" y="260.4189">loadJsonToReplay(): void</text><ellipse cx="50.5" cy="269.8359" fill="#84BE84" rx="3" ry="3" style="stroke: #038048; stroke-width: 1.0;"/><text fill="#000000" font-family="sans-serif" font-size="11" lengthAdjust="spacingAndGlyphs" textLength="94" x="59.5" y="274.2549">autoPlay(int): Move</text><ellipse cx="50.5" cy="283.6719" fill="#84BE84" rx="3" ry="3" style="stroke: #038048; stroke-width: 1.0;"/><text fill="#000000" font-family="sans-serif" font-size="11" lengthAdjust="spacingAndGlyphs" textLength="111" x="59.5" y="288.0908">playNextMove(): Move</text><ellipse cx="50.5" cy="297.5078" fill="#84BE84" rx="3" ry="3" style="stroke: #038048; stroke-width: 1.0;"/><text fill="#000000" font-family="sans-serif" font-size="11" lengthAdjust="spacingAndGlyphs" textLength="130" x="59.5" y="301.9268">incrementPlayIndex(): void</text><ellipse cx="50.5" cy="311.3438" fill="#84BE84" rx="3" ry="3" style="stroke: #038048; stroke-width: 1.0;"/><text fill="#000000" font-family="sans-serif" font-size="11" lengthAdjust="spacingAndGlyphs" textLength="103" x="59.5" y="315.7627">playerMoveTick(): int</text><ellipse cx="50.5" cy="325.1797" fill="#84BE84" rx="3" ry="3" style="stroke: #038048; stroke-width: 1.0;"/><text fill="#000000" font-family="sans-serif" font-size="11" lengthAdjust="spacingAndGlyphs" textLength="102" x="59.5" y="329.5986">resetAutoPlay(): void</text><ellipse cx="50.5" cy="339.0156" fill="#84BE84" rx="3" ry="3" style="stroke: #038048; stroke-width: 1.0;"/><text fill="#000000" font-family="sans-serif" font-size="11" lengthAdjust="spacingAndGlyphs" textLength="100" x="59.5" y="343.4346">getReplayLevel(): int</text><ellipse cx="50.5" cy="352.8516" fill="#84BE84" rx="3" ry="3" style="stroke: #038048; stroke-width: 1.0;"/><text fill="#000000" font-family="sans-serif" font-size="11" lengthAdjust="spacingAndGlyphs" textLength="120" x="59.5" y="357.2705">toggleAutoPlaying(): void</text><ellipse cx="50.5" cy="366.6875" fill="#84BE84" rx="3" ry="3" style="stroke: #038048; stroke-width: 1.0;"/><text fill="#000000" font-family="sans-serif" font-size="11" lengthAdjust="spacingAndGlyphs" textLength="116" x="59.5" y="371.1064">endOfReplay(): boolean</text><ellipse cx="50.5" cy="380.5234" fill="#84BE84" rx="3" ry="3" style="stroke: #038048; stroke-width: 1.0;"/><text fill="#000000" font-family="sans-serif" font-size="11" lengthAdjust="spacingAndGlyphs" textLength="104" x="59.5" y="384.9424">increaseDelay(): void</text><ellipse cx="50.5" cy="394.3594" fill="#84BE84" rx="3" ry="3" style="stroke: #038048; stroke-width: 1.0;"/><text fill="#000000" font-family="sans-serif" font-size="11" lengthAdjust="spacingAndGlyphs" textLength="108" x="59.5" y="398.7783">decreaseDelay(): void</text><ellipse cx="50.5" cy="408.1953" fill="#84BE84" rx="3" ry="3" style="stroke: #038048; stroke-width: 1.0;"/><text fill="#000000" font-family="sans-serif" font-size="11" lengthAdjust="spacingAndGlyphs" textLength="195" x="59.5" y="412.6143">convertStringToMove(Character): Move</text><ellipse cx="50.5" cy="422.0313" fill="#84BE84" rx="3" ry="3" style="stroke: #038048; stroke-width: 1.0;"/><text fill="#000000" font-family="sans-serif" font-size="11" lengthAdjust="spacingAndGlyphs" textLength="143" x="59.5" y="426.4502">convertStringToInt(String): int</text></a><!--MD5=[0e85dc3672365272da8d1b366e7f8be7]
link nz.ac.vuw.ecs.swen225.gp30.recnplay.LoadJSON to nz.ac.vuw.ecs.swen225.gp30.recnplay.Record--><!--MD5=[ef51512de0720574540459ff52544c18]
link nz.ac.vuw.ecs.swen225.gp30.recnplay.LoadJSON to nz.ac.vuw.ecs.swen225.gp30.recnplay.Replay--><text fill="#888888" font-family="sans-serif" font-size="10" lengthAdjust="spacingAndGlyphs" textLength="185" x="169" y="465.3809">UMLDoclet 2.0.12, PlantUML 1.2020.16</text><!--MD5=[b5cbda20f7db240e5c65a2587d85f75f]
@startuml
    namespace nz.ac.vuw.ecs.swen225.gp30.recnplay {

        class LoadJSON [[LoadJSON.html]] {
            +loadPlayerMoves(String): ArrayList<String>
            +loadLevel(String): Integer
        }

        class Record [[Record.html]] {
            +storePlayerMove(Move, int): void
            +storeLevel(Integer): void
            +convertMoveToString(Move): String
            +writeJsonToFile(): void
        }

        class Replay [[Replay.html]] {
            +loadJsonToReplay(): void
            +autoPlay(int): Move
            +playNextMove(): Move
            +incrementPlayIndex(): void
            +playerMoveTick(): int
            +resetAutoPlay(): void
            +getReplayLevel(): int
            +toggleAutoPlaying(): void
            +endOfReplay(): boolean
            +increaseDelay(): void
            +decreaseDelay(): void
            +convertStringToMove(Character): Move
            +convertStringToInt(String): int
        }

    }

    center footer UMLDoclet 2.0.12, PlantUML 1.2020.16
@enduml

PlantUML version 1.2020.16(Mon Aug 24 08:20:43 NZST 2020)
(APACHE source distribution)
Java Runtime: Java(TM) SE Runtime Environment
JVM: Java HotSpot(TM) 64-Bit Server VM
Default Encoding: Cp1252
Language: en
Country: NZ
--></g></svg>