<?xml version="1.0" encoding="UTF-8" standalone="no"?><svg xmlns="http://www.w3.org/2000/svg" xmlns:xlink="http://www.w3.org/1999/xlink" contentScriptType="application/ecmascript" contentStyleType="text/css" height="265px" preserveAspectRatio="none" style="width:247px;height:265px;" version="1.1" viewBox="0 0 247 265" width="247px" zoomAndPan="magnify"><defs><filter height="300%" id="ftytlq7zgn51i" width="300%" x="-1" y="-1"><feGaussianBlur result="blurOut" stdDeviation="2.0"/><feColorMatrix in="blurOut" result="blurOut2" type="matrix" values="0 0 0 0 0 0 0 0 0 0 0 0 0 0 0 0 0 0 .4 0"/><feOffset dx="4.0" dy="4.0" in="blurOut2" result="blurOut3"/><feBlend in="SourceGraphic" in2="blurOut3" mode="normal"/></filter></defs><g><!--MD5=[c77131058ba3f6d4bc2530718dff30e2]
class nz.ac.vuw.ecs.swen225.gp30.recnplay.Replay--><a href="Replay.html" target="_top" title="Replay.html" xlink:actuate="onRequest" xlink:href="Replay.html" xlink:show="new" xlink:title="Replay.html" xlink:type="simple"><rect codeLine="5" fill="#FEFECE" filter="url(#ftytlq7zgn51i)" height="228.0547" id="nz.ac.vuw.ecs.swen225.gp30.recnplay.Replay" style="stroke: #A80036; stroke-width: 1.5;" width="221" x="7" y="7"/><ellipse cx="26.5" cy="27.0938" fill="#ADD1B2" rx="11" ry="11" style="stroke: #A80036; stroke-width: 1.0;"/><path d="M29.2656,22.9688 Q29.4219,22.75 29.6094,22.6406 Q29.7969,22.5313 30.0156,22.5313 Q30.3906,22.5313 30.625,22.7969 Q30.8594,23.0469 30.8594,23.6563 L30.8594,25.1094 Q30.8594,25.7188 30.625,25.9844 Q30.3906,26.25 30.0156,26.25 Q29.6719,26.25 29.4688,26.0469 Q29.2656,25.8594 29.1563,25.3438 Q29.1094,24.9844 28.9219,24.7969 Q28.5938,24.4219 27.9844,24.2031 Q27.375,23.9844 26.75,23.9844 Q25.9844,23.9844 25.3438,24.3125 Q24.7188,24.6406 24.2188,25.3906 Q23.7344,26.1406 23.7344,27.1719 L23.7344,28.2656 Q23.7344,29.5 24.625,30.3281 Q25.5156,31.1406 27.1094,31.1406 Q28.0469,31.1406 28.7031,30.8906 Q29.0938,30.7344 29.5156,30.2969 Q29.7813,30.0313 29.9219,29.9531 Q30.0781,29.875 30.2813,29.875 Q30.6094,29.875 30.8594,30.1406 Q31.125,30.3906 31.125,30.7344 Q31.125,31.0781 30.7813,31.4844 Q30.2813,32.0625 29.4844,32.3906 Q28.4063,32.8438 27.1094,32.8438 Q25.5938,32.8438 24.3906,32.2188 Q23.4063,31.7188 22.7188,30.6563 Q22.0313,29.5781 22.0313,28.2969 L22.0313,27.1406 Q22.0313,25.8125 22.6406,24.6719 Q23.2656,23.5156 24.3594,22.9063 Q25.4531,22.2813 26.6875,22.2813 Q27.4219,22.2813 28.0625,22.4531 Q28.7188,22.6094 29.2656,22.9688 Z "/><text fill="#000000" font-family="sans-serif" font-size="14" lengthAdjust="spacingAndGlyphs" textLength="44" x="109" y="26.5332">Replay</text><text fill="#000000" font-family="sans-serif" font-size="10" lengthAdjust="spacingAndGlyphs" textLength="179" x="41.5" y="39.9902">nz.ac.vuw.ecs.swen225.gp30.recnplay</text><line style="stroke: #A80036; stroke-width: 1.5;" x1="8" x2="227" y1="47.1875" y2="47.1875"/><ellipse cx="18" cy="58.1875" fill="#84BE84" rx="3" ry="3" style="stroke: #038048; stroke-width: 1.0;"/><text fill="#000000" font-family="sans-serif" font-size="11" lengthAdjust="spacingAndGlyphs" textLength="125" x="27" y="62.6064">loadJsonToReplay(): void</text><ellipse cx="18" cy="72.0234" fill="#84BE84" rx="3" ry="3" style="stroke: #038048; stroke-width: 1.0;"/><text fill="#000000" font-family="sans-serif" font-size="11" lengthAdjust="spacingAndGlyphs" textLength="94" x="27" y="76.4424">autoPlay(int): Move</text><ellipse cx="18" cy="85.8594" fill="#84BE84" rx="3" ry="3" style="stroke: #038048; stroke-width: 1.0;"/><text fill="#000000" font-family="sans-serif" font-size="11" lengthAdjust="spacingAndGlyphs" textLength="111" x="27" y="90.2783">playNextMove(): Move</text><ellipse cx="18" cy="99.6953" fill="#84BE84" rx="3" ry="3" style="stroke: #038048; stroke-width: 1.0;"/><text fill="#000000" font-family="sans-serif" font-size="11" lengthAdjust="spacingAndGlyphs" textLength="130" x="27" y="104.1143">incrementPlayIndex(): void</text><ellipse cx="18" cy="113.5313" fill="#84BE84" rx="3" ry="3" style="stroke: #038048; stroke-width: 1.0;"/><text fill="#000000" font-family="sans-serif" font-size="11" lengthAdjust="spacingAndGlyphs" textLength="103" x="27" y="117.9502">playerMoveTick(): int</text><ellipse cx="18" cy="127.3672" fill="#84BE84" rx="3" ry="3" style="stroke: #038048; stroke-width: 1.0;"/><text fill="#000000" font-family="sans-serif" font-size="11" lengthAdjust="spacingAndGlyphs" textLength="102" x="27" y="131.7861">resetAutoPlay(): void</text><ellipse cx="18" cy="141.2031" fill="#84BE84" rx="3" ry="3" style="stroke: #038048; stroke-width: 1.0;"/><text fill="#000000" font-family="sans-serif" font-size="11" lengthAdjust="spacingAndGlyphs" textLength="100" x="27" y="145.6221">getReplayLevel(): int</text><ellipse cx="18" cy="155.0391" fill="#84BE84" rx="3" ry="3" style="stroke: #038048; stroke-width: 1.0;"/><text fill="#000000" font-family="sans-serif" font-size="11" lengthAdjust="spacingAndGlyphs" textLength="120" x="27" y="159.458">toggleAutoPlaying(): void</text><ellipse cx="18" cy="168.875" fill="#84BE84" rx="3" ry="3" style="stroke: #038048; stroke-width: 1.0;"/><text fill="#000000" font-family="sans-serif" font-size="11" lengthAdjust="spacingAndGlyphs" textLength="116" x="27" y="173.2939">endOfReplay(): boolean</text><ellipse cx="18" cy="182.7109" fill="#84BE84" rx="3" ry="3" style="stroke: #038048; stroke-width: 1.0;"/><text fill="#000000" font-family="sans-serif" font-size="11" lengthAdjust="spacingAndGlyphs" textLength="104" x="27" y="187.1299">increaseDelay(): void</text><ellipse cx="18" cy="196.5469" fill="#84BE84" rx="3" ry="3" style="stroke: #038048; stroke-width: 1.0;"/><text fill="#000000" font-family="sans-serif" font-size="11" lengthAdjust="spacingAndGlyphs" textLength="108" x="27" y="200.9658">decreaseDelay(): void</text><ellipse cx="18" cy="210.3828" fill="#84BE84" rx="3" ry="3" style="stroke: #038048; stroke-width: 1.0;"/><text fill="#000000" font-family="sans-serif" font-size="11" lengthAdjust="spacingAndGlyphs" textLength="195" x="27" y="214.8018">convertStringToMove(Character): Move</text><ellipse cx="18" cy="224.2188" fill="#84BE84" rx="3" ry="3" style="stroke: #038048; stroke-width: 1.0;"/><text fill="#000000" font-family="sans-serif" font-size="11" lengthAdjust="spacingAndGlyphs" textLength="143" x="27" y="228.6377">convertStringToInt(String): int</text></a><text fill="#888888" font-family="sans-serif" font-size="10" lengthAdjust="spacingAndGlyphs" textLength="185" x="25" y="252.4355">UMLDoclet 2.0.12, PlantUML 1.2020.16</text><!--MD5=[7e5922dd9dbd924e5011e5905bc048d0]
@startuml
    set namespaceSeparator none
    hide empty fields
    hide empty methods

    class "<size:14>Replay\n<size:10>nz.ac.vuw.ecs.swen225.gp30.recnplay" as nz.ac.vuw.ecs.swen225.gp30.recnplay.Replay [[Replay.html]] {
        +loadJsonToReplay(): void
        +autoPlay(int): Move
        +playNextMove(): Move
        +incrementPlayIndex(): void
        +playerMoveTick(): int
        +resetAutoPlay(): void
        +getReplayLevel(): int
        +toggleAutoPlaying(): void
        +endOfReplay(): boolean
        +increaseDelay(): void
        +decreaseDelay(): void
        +convertStringToMove(Character): Move
        +convertStringToInt(String): int
    }

    center footer UMLDoclet 2.0.12, PlantUML 1.2020.16
@enduml

PlantUML version 1.2020.16(Mon Aug 24 08:20:43 NZST 2020)
(APACHE source distribution)
Java Runtime: Java(TM) SE Runtime Environment
JVM: Java HotSpot(TM) 64-Bit Server VM
Default Encoding: Cp1252
Language: en
Country: NZ
--></g></svg>