<?xml version="1.0" encoding="UTF-8" standalone="no"?><svg xmlns="http://www.w3.org/2000/svg" xmlns:xlink="http://www.w3.org/1999/xlink" contentScriptType="application/ecmascript" contentStyleType="text/css" height="163px" preserveAspectRatio="none" style="width:197px;height:163px;" version="1.1" viewBox="0 0 197 163" width="197px" zoomAndPan="magnify"><defs><filter height="300%" id="fz2wsln9hau3h" width="300%" x="-1" y="-1"><feGaussianBlur result="blurOut" stdDeviation="2.0"/><feColorMatrix in="blurOut" result="blurOut2" type="matrix" values="0 0 0 0 0 0 0 0 0 0 0 0 0 0 0 0 0 0 .4 0"/><feOffset dx="4.0" dy="4.0" in="blurOut2" result="blurOut3"/><feBlend in="SourceGraphic" in2="blurOut3" mode="normal"/></filter></defs><g><!--MD5=[d8564a0016bcbc0864ef5f812392ec61]
class nz.ac.vuw.ecs.swen225.gp30.Move--><a href="Move.html" target="_top" title="Move.html" xlink:actuate="onRequest" xlink:href="Move.html" xlink:show="new" xlink:title="Move.html" xlink:type="simple"><rect codeLine="5" fill="#FEFECE" filter="url(#fz2wsln9hau3h)" height="125.3672" id="nz.ac.vuw.ecs.swen225.gp30.Move" style="stroke: #A80036; stroke-width: 1.5;" width="169" x="8" y="7"/><ellipse cx="23" cy="27.0938" fill="#EB937F" rx="11" ry="11" style="stroke: #A80036; stroke-width: 1.0;"/><path d="M21.8594,27.8906 L21.8594,30.3906 L26.1875,30.3906 L26.1875,29.4688 Q26.1875,28.8594 26.4219,28.5938 Q26.6719,28.3281 27.0469,28.3281 Q27.4219,28.3281 27.6563,28.5938 Q27.8906,28.8594 27.8906,29.4688 L27.8906,32.0938 L19.8906,32.0938 Q19.2656,32.0938 19,31.8594 Q18.75,31.625 18.75,31.2344 Q18.75,30.8594 19.0156,30.625 Q19.2813,30.3906 19.8906,30.3906 L20.1563,30.3906 L20.1563,23.7344 L19.8906,23.7344 Q19.2656,23.7344 19,23.5 Q18.75,23.2656 18.75,22.875 Q18.75,22.5 19,22.2656 Q19.2656,22.0313 19.8906,22.0313 L27.5156,22.0313 L27.5156,24.625 Q27.5156,25.2344 27.2813,25.5 Q27.0625,25.75 26.6719,25.75 Q26.2969,25.75 26.0625,25.5 Q25.8281,25.2344 25.8281,24.625 L25.8281,23.7344 L21.8594,23.7344 L21.8594,26.1875 L23.3438,26.1875 Q23.3438,25.5313 23.4688,25.3438 Q23.7344,24.9375 24.2031,24.9375 Q24.5781,24.9375 24.8125,25.2031 Q25.0469,25.4531 25.0469,26.0625 L25.0469,28.0313 Q25.0469,28.5781 24.9219,28.7656 Q24.6563,29.1563 24.2031,29.1563 Q23.7344,29.1563 23.4688,28.75 Q23.3438,28.5625 23.3438,27.8906 L21.8594,27.8906 Z "/><text fill="#000000" font-family="sans-serif" font-size="14" lengthAdjust="spacingAndGlyphs" textLength="35" x="88" y="26.5332">Move</text><text fill="#000000" font-family="sans-serif" font-size="10" lengthAdjust="spacingAndGlyphs" textLength="137" x="37" y="39.9902">nz.ac.vuw.ecs.swen225.gp30</text><line style="stroke: #A80036; stroke-width: 1.5;" x1="9" x2="176" y1="47.1875" y2="47.1875"/><ellipse cx="19" cy="58.1875" fill="none" rx="3" ry="3" style="stroke: #038048; stroke-width: 1.0;"/><text fill="#000000" font-family="sans-serif" font-size="11" lengthAdjust="spacingAndGlyphs" text-decoration="underline" textLength="15" x="28" y="62.6064">UP</text><ellipse cx="19" cy="72.0234" fill="none" rx="3" ry="3" style="stroke: #038048; stroke-width: 1.0;"/><text fill="#000000" font-family="sans-serif" font-size="11" lengthAdjust="spacingAndGlyphs" text-decoration="underline" textLength="35" x="28" y="76.4424">DOWN</text><ellipse cx="19" cy="85.8594" fill="none" rx="3" ry="3" style="stroke: #038048; stroke-width: 1.0;"/><text fill="#000000" font-family="sans-serif" font-size="11" lengthAdjust="spacingAndGlyphs" text-decoration="underline" textLength="27" x="28" y="90.2783">LEFT</text><ellipse cx="19" cy="99.6953" fill="none" rx="3" ry="3" style="stroke: #038048; stroke-width: 1.0;"/><text fill="#000000" font-family="sans-serif" font-size="11" lengthAdjust="spacingAndGlyphs" text-decoration="underline" textLength="35" x="28" y="104.1143">RIGHT</text><line style="stroke: #A80036; stroke-width: 1.5;" x1="9" x2="176" y1="110.5313" y2="110.5313"/><ellipse cx="19" cy="121.5313" fill="#84BE84" rx="3" ry="3" style="stroke: #038048; stroke-width: 1.0;"/><text fill="#000000" font-family="sans-serif" font-size="11" lengthAdjust="spacingAndGlyphs" text-decoration="underline" textLength="128" x="28" y="125.9502">getFromOrdinal(int): Move</text></a><text fill="#888888" font-family="sans-serif" font-size="10" lengthAdjust="spacingAndGlyphs" textLength="185" x="0" y="149.748">UMLDoclet 2.0.12, PlantUML 1.2020.16</text><!--MD5=[71fdb5c7a0d325c0242f54fc109555d3]
@startuml
    set namespaceSeparator none
    hide empty fields
    hide empty methods

    enum "<size:14>Move\n<size:10>nz.ac.vuw.ecs.swen225.gp30" as nz.ac.vuw.ecs.swen225.gp30.Move [[Move.html]] {
        {static} +UP
        {static} +DOWN
        {static} +LEFT
        {static} +RIGHT
        {static} +getFromOrdinal(int): Move
    }

    center footer UMLDoclet 2.0.12, PlantUML 1.2020.16
@enduml

PlantUML version 1.2020.16(Mon Aug 24 08:20:43 NZST 2020)
(APACHE source distribution)
Java Runtime: Java(TM) SE Runtime Environment
JVM: Java HotSpot(TM) 64-Bit Server VM
Default Encoding: Cp1252
Language: en
Country: NZ
--></g></svg>