<?xml version="1.0" encoding="UTF-8" standalone="no"?><svg xmlns="http://www.w3.org/2000/svg" xmlns:xlink="http://www.w3.org/1999/xlink" contentScriptType="application/ecmascript" contentStyleType="text/css" height="204px" preserveAspectRatio="none" style="width:252px;height:204px;" version="1.1" viewBox="0 0 252 204" width="252px" zoomAndPan="magnify"><defs><filter height="300%" id="f5sqeblvycbg9" width="300%" x="-1" y="-1"><feGaussianBlur result="blurOut" stdDeviation="2.0"/><feColorMatrix in="blurOut" result="blurOut2" type="matrix" values="0 0 0 0 0 0 0 0 0 0 0 0 0 0 0 0 0 0 .4 0"/><feOffset dx="4.0" dy="4.0" in="blurOut2" result="blurOut3"/><feBlend in="SourceGraphic" in2="blurOut3" mode="normal"/></filter></defs><g><!--MD5=[ce40f48160a5ef0f1bf499b7a3d8312f]
cluster nz.ac.vuw.ecs.swen225.gp30--><polygon fill="#FFFFFF" filter="url(#f5sqeblvycbg9)" points="16,6,220,6,227,29.6094,230,29.6094,230,175,16,175,16,6" style="stroke: #000000; stroke-width: 1.5;"/><line style="stroke: #000000; stroke-width: 1.5;" x1="16" x2="227" y1="29.6094" y2="29.6094"/><text fill="#000000" font-family="sans-serif" font-size="14" font-weight="bold" lengthAdjust="spacingAndGlyphs" textLength="198" x="20" y="22.5332">nz.ac.vuw.ecs.swen225.gp30</text><!--MD5=[d8564a0016bcbc0864ef5f812392ec61]
class nz.ac.vuw.ecs.swen225.gp30.Move--><a href="Move.html" target="_top" title="Move.html" xlink:actuate="onRequest" xlink:href="Move.html" xlink:show="new" xlink:title="Move.html" xlink:type="simple"><rect codeLine="3" fill="#FEFECE" filter="url(#f5sqeblvycbg9)" height="117.1797" id="nz.ac.vuw.ecs.swen225.gp30.Move" style="stroke: #A80036; stroke-width: 1.5;" width="154" x="46" y="42"/><ellipse cx="103.75" cy="58" fill="#EB937F" rx="11" ry="11" style="stroke: #A80036; stroke-width: 1.0;"/><path d="M102.6094,58.7969 L102.6094,61.2969 L106.9375,61.2969 L106.9375,60.375 Q106.9375,59.7656 107.1719,59.5 Q107.4219,59.2344 107.7969,59.2344 Q108.1719,59.2344 108.4063,59.5 Q108.6406,59.7656 108.6406,60.375 L108.6406,63 L100.6406,63 Q100.0156,63 99.75,62.7656 Q99.5,62.5313 99.5,62.1406 Q99.5,61.7656 99.7656,61.5313 Q100.0313,61.2969 100.6406,61.2969 L100.9063,61.2969 L100.9063,54.6406 L100.6406,54.6406 Q100.0156,54.6406 99.75,54.4063 Q99.5,54.1719 99.5,53.7813 Q99.5,53.4063 99.75,53.1719 Q100.0156,52.9375 100.6406,52.9375 L108.2656,52.9375 L108.2656,55.5313 Q108.2656,56.1406 108.0313,56.4063 Q107.8125,56.6563 107.4219,56.6563 Q107.0469,56.6563 106.8125,56.4063 Q106.5781,56.1406 106.5781,55.5313 L106.5781,54.6406 L102.6094,54.6406 L102.6094,57.0938 L104.0938,57.0938 Q104.0938,56.4375 104.2188,56.25 Q104.4844,55.8438 104.9531,55.8438 Q105.3281,55.8438 105.5625,56.1094 Q105.7969,56.3594 105.7969,56.9688 L105.7969,58.9375 Q105.7969,59.4844 105.6719,59.6719 Q105.4063,60.0625 104.9531,60.0625 Q104.4844,60.0625 104.2188,59.6563 Q104.0938,59.4688 104.0938,58.7969 L102.6094,58.7969 Z "/><text fill="#000000" font-family="sans-serif" font-size="12" lengthAdjust="spacingAndGlyphs" textLength="30" x="124.25" y="62.9102">Move</text><line style="stroke: #A80036; stroke-width: 1.5;" x1="47" x2="199" y1="74" y2="74"/><ellipse cx="57" cy="85" fill="none" rx="3" ry="3" style="stroke: #038048; stroke-width: 1.0;"/><text fill="#000000" font-family="sans-serif" font-size="11" lengthAdjust="spacingAndGlyphs" text-decoration="underline" textLength="15" x="66" y="89.4189">UP</text><ellipse cx="57" cy="98.8359" fill="none" rx="3" ry="3" style="stroke: #038048; stroke-width: 1.0;"/><text fill="#000000" font-family="sans-serif" font-size="11" lengthAdjust="spacingAndGlyphs" text-decoration="underline" textLength="35" x="66" y="103.2549">DOWN</text><ellipse cx="57" cy="112.6719" fill="none" rx="3" ry="3" style="stroke: #038048; stroke-width: 1.0;"/><text fill="#000000" font-family="sans-serif" font-size="11" lengthAdjust="spacingAndGlyphs" text-decoration="underline" textLength="27" x="66" y="117.0908">LEFT</text><ellipse cx="57" cy="126.5078" fill="none" rx="3" ry="3" style="stroke: #038048; stroke-width: 1.0;"/><text fill="#000000" font-family="sans-serif" font-size="11" lengthAdjust="spacingAndGlyphs" text-decoration="underline" textLength="35" x="66" y="130.9268">RIGHT</text><line style="stroke: #A80036; stroke-width: 1.5;" x1="47" x2="199" y1="137.3438" y2="137.3438"/><ellipse cx="57" cy="148.3438" fill="#84BE84" rx="3" ry="3" style="stroke: #038048; stroke-width: 1.0;"/><text fill="#000000" font-family="sans-serif" font-size="11" lengthAdjust="spacingAndGlyphs" text-decoration="underline" textLength="128" x="66" y="152.7627">getFromOrdinal(int): Move</text></a><text fill="#888888" font-family="sans-serif" font-size="10" lengthAdjust="spacingAndGlyphs" textLength="185" x="24.5" y="191.3809">UMLDoclet 2.0.12, PlantUML 1.2020.16</text><!--MD5=[4188a87b7471330ea08c849c2b97891f]
@startuml
    namespace nz.ac.vuw.ecs.swen225.gp30 {

        enum Move [[Move.html]] {
            {static} +UP
            {static} +DOWN
            {static} +LEFT
            {static} +RIGHT
            {static} +getFromOrdinal(int): Move
        }

    }

    center footer UMLDoclet 2.0.12, PlantUML 1.2020.16
@enduml

PlantUML version 1.2020.16(Mon Aug 24 08:20:43 NZST 2020)
(APACHE source distribution)
Java Runtime: Java(TM) SE Runtime Environment
JVM: Java HotSpot(TM) 64-Bit Server VM
Default Encoding: Cp1252
Language: en
Country: NZ
--></g></svg>