<?xml version="1.0" encoding="UTF-8" standalone="no"?><svg xmlns="http://www.w3.org/2000/svg" xmlns:xlink="http://www.w3.org/1999/xlink" contentScriptType="application/ecmascript" contentStyleType="text/css" height="360px" preserveAspectRatio="none" style="width:225px;height:360px;" version="1.1" viewBox="0 0 225 360" width="225px" zoomAndPan="magnify"><defs><filter height="300%" id="fqpfju6xcfl2m" width="300%" x="-1" y="-1"><feGaussianBlur result="blurOut" stdDeviation="2.0"/><feColorMatrix in="blurOut" result="blurOut2" type="matrix" values="0 0 0 0 0 0 0 0 0 0 0 0 0 0 0 0 0 0 .4 0"/><feOffset dx="4.0" dy="4.0" in="blurOut2" result="blurOut3"/><feBlend in="SourceGraphic" in2="blurOut3" mode="normal"/></filter></defs><g><!--MD5=[8618611d06e6aa0eb03211a041c1e26e]
class nz.ac.vuw.ecs.swen225.gp30.maze.Actor--><a href="Actor.html" target="_top" title="Actor.html" xlink:actuate="onRequest" xlink:href="Actor.html" xlink:show="new" xlink:title="Actor.html" xlink:type="simple"><rect codeLine="5" fill="#FEFECE" filter="url(#fqpfju6xcfl2m)" height="166.875" id="nz.ac.vuw.ecs.swen225.gp30.maze.Actor" style="stroke: #A80036; stroke-width: 1.5;" width="197" x="9" y="157"/><ellipse cx="24" cy="177.0938" fill="#A9DCDF" rx="11" ry="11" style="stroke: #A80036; stroke-width: 1.0;"/><path d="M26.1875,178.8594 L22.0469,178.8594 L21.625,179.8906 L22.0469,179.8906 Q22.6563,179.8906 22.9219,180.125 Q23.1875,180.3594 23.1875,180.75 Q23.1875,181.125 22.9219,181.3594 Q22.6563,181.5938 22.0469,181.5938 L19.75,181.5938 Q19.1406,181.5938 18.8906,181.3594 Q18.625,181.125 18.625,180.7344 Q18.625,180.3594 18.9063,180.125 Q19.1719,179.875 19.7969,179.8906 L22.4688,173.2344 L21.3594,173.2344 Q20.75,173.2344 20.4844,173 Q20.2188,172.7656 20.2188,172.375 Q20.2188,172 20.4844,171.7656 Q20.75,171.5313 21.3594,171.5313 L25.0313,171.5313 L28.4219,179.8906 Q29.0156,179.8906 29.2031,180.0313 Q29.5938,180.2969 29.5938,180.75 Q29.5938,181.125 29.3281,181.3594 Q29.0781,181.5938 28.4688,181.5938 L26.1719,181.5938 Q25.5625,181.5938 25.2969,181.3594 Q25.0313,181.125 25.0313,180.7344 Q25.0313,180.3594 25.2969,180.125 Q25.5625,179.8906 26.1719,179.8906 L26.5938,179.8906 L26.1875,178.8594 Z M25.4688,177.1563 L24.1094,173.7813 L22.7344,177.1563 L25.4688,177.1563 Z "/><text fill="#000000" font-family="sans-serif" font-size="14" font-style="italic" lengthAdjust="spacingAndGlyphs" textLength="33" x="104" y="176.5332">Actor</text><text fill="#000000" font-family="sans-serif" font-size="10" font-style="italic" lengthAdjust="spacingAndGlyphs" textLength="165" x="38" y="189.9902">nz.ac.vuw.ecs.swen225.gp30.maze</text><line style="stroke: #A80036; stroke-width: 1.5;" x1="10" x2="205" y1="197.1875" y2="197.1875"/><polygon fill="none" points="20,203.1875,24,207.1875,20,211.1875,16,207.1875" style="stroke: #B38D22; stroke-width: 1.0;"/><text fill="#000000" font-family="sans-serif" font-size="11" lengthAdjust="spacingAndGlyphs" textLength="23" x="29" y="212.6064">x: int</text><polygon fill="none" points="20,217.0234,24,221.0234,20,225.0234,16,221.0234" style="stroke: #B38D22; stroke-width: 1.0;"/><text fill="#000000" font-family="sans-serif" font-size="11" lengthAdjust="spacingAndGlyphs" textLength="23" x="29" y="226.4424">y: int</text><polygon fill="none" points="20,230.8594,24,234.8594,20,238.8594,16,234.8594" style="stroke: #B38D22; stroke-width: 1.0;"/><text fill="#000000" font-family="sans-serif" font-size="11" lengthAdjust="spacingAndGlyphs" textLength="45" x="29" y="240.2783">dir: Move</text><line style="stroke: #A80036; stroke-width: 1.5;" x1="10" x2="205" y1="246.6953" y2="246.6953"/><ellipse cx="20" cy="257.6953" fill="#84BE84" rx="3" ry="3" style="stroke: #038048; stroke-width: 1.0;"/><text fill="#000000" font-family="sans-serif" font-size="11" lengthAdjust="spacingAndGlyphs" textLength="62" x="29" y="262.1143">Actor(int, int)</text><ellipse cx="20" cy="271.5313" fill="#84BE84" rx="3" ry="3" style="stroke: #038048; stroke-width: 1.0;"/><text fill="#000000" font-family="sans-serif" font-size="11" lengthAdjust="spacingAndGlyphs" textLength="47" x="29" y="275.9502">getX(): int</text><ellipse cx="20" cy="285.3672" fill="#84BE84" rx="3" ry="3" style="stroke: #038048; stroke-width: 1.0;"/><text fill="#000000" font-family="sans-serif" font-size="11" lengthAdjust="spacingAndGlyphs" textLength="47" x="29" y="289.7861">getY(): int</text><ellipse cx="20" cy="299.2031" fill="#84BE84" rx="3" ry="3" style="stroke: #038048; stroke-width: 1.0;"/><text fill="#000000" font-family="sans-serif" font-size="11" lengthAdjust="spacingAndGlyphs" textLength="87" x="29" y="303.6221">setAt(int, int): void</text><ellipse cx="20" cy="313.0391" fill="#84BE84" rx="3" ry="3" style="stroke: #038048; stroke-width: 1.0;"/><text fill="#000000" font-family="sans-serif" font-size="11" lengthAdjust="spacingAndGlyphs" textLength="119" x="29" y="317.458">setDirection(Move): void</text></a><!--MD5=[342bfcf57e9e19ef468d50b7455618f2]
class nz.ac.vuw.ecs.swen225.gp30.maze.GameObject--><a href="GameObject.html" target="_top" title="GameObject.html" xlink:actuate="onRequest" xlink:href="GameObject.html" xlink:show="new" xlink:title="GameObject.html" xlink:type="simple"><rect codeLine="16" fill="#FEFECE" filter="url(#fqpfju6xcfl2m)" height="89.6953" id="nz.ac.vuw.ecs.swen225.gp30.maze.GameObject" style="stroke: #A80036; stroke-width: 1.5;" width="197" x="9" y="7"/><ellipse cx="24" cy="27.0938" fill="#B4A7E5" rx="11" ry="11" style="stroke: #A80036; stroke-width: 1.0;"/><path d="M24.9531,23.7344 L24.9531,30.3906 L26.6719,30.3906 Q27.2813,30.3906 27.5469,30.625 Q27.8125,30.8594 27.8125,31.25 Q27.8125,31.625 27.5469,31.8594 Q27.2813,32.0938 26.6719,32.0938 L21.5313,32.0938 Q20.9219,32.0938 20.6563,31.8594 Q20.3906,31.625 20.3906,31.2344 Q20.3906,30.8594 20.6563,30.625 Q20.9219,30.3906 21.5313,30.3906 L23.25,30.3906 L23.25,23.7344 L21.5313,23.7344 Q20.9219,23.7344 20.6563,23.5 Q20.3906,23.2656 20.3906,22.875 Q20.3906,22.5 20.6563,22.2656 Q20.9219,22.0313 21.5313,22.0313 L26.6719,22.0313 Q27.2813,22.0313 27.5469,22.2656 Q27.8125,22.5 27.8125,22.875 Q27.8125,23.2656 27.5469,23.5 Q27.2813,23.7344 26.6719,23.7344 L24.9531,23.7344 Z "/><text fill="#000000" font-family="sans-serif" font-size="14" font-style="italic" lengthAdjust="spacingAndGlyphs" textLength="80" x="80.5" y="26.5332">GameObject</text><text fill="#000000" font-family="sans-serif" font-size="10" font-style="italic" lengthAdjust="spacingAndGlyphs" textLength="165" x="38" y="39.9902">nz.ac.vuw.ecs.swen225.gp30.maze</text><line style="stroke: #A80036; stroke-width: 1.5;" x1="10" x2="205" y1="47.1875" y2="47.1875"/><ellipse cx="20" cy="58.1875" fill="#84BE84" rx="3" ry="3" style="stroke: #038048; stroke-width: 1.0;"/><text fill="#000000" font-family="sans-serif" font-size="11" font-style="italic" lengthAdjust="spacingAndGlyphs" textLength="47" x="29" y="62.6064">getX(): int</text><ellipse cx="20" cy="72.0234" fill="#84BE84" rx="3" ry="3" style="stroke: #038048; stroke-width: 1.0;"/><text fill="#000000" font-family="sans-serif" font-size="11" font-style="italic" lengthAdjust="spacingAndGlyphs" textLength="47" x="29" y="76.4424">getY(): int</text><ellipse cx="20" cy="85.8594" fill="#84BE84" rx="3" ry="3" style="stroke: #038048; stroke-width: 1.0;"/><text fill="#000000" font-family="sans-serif" font-size="11" font-style="italic" lengthAdjust="spacingAndGlyphs" textLength="115" x="29" y="90.2783">getImageString(): String</text></a><!--MD5=[4bce08ae215c4b06bccfcc861b19b124]
reverse link nz.ac.vuw.ecs.swen225.gp30.maze.GameObject to nz.ac.vuw.ecs.swen225.gp30.maze.Actor--><path codeLine="22" d="M107.5,117.59 C107.5,130.26 107.5,143.71 107.5,156.87 " fill="none" id="nz.ac.vuw.ecs.swen225.gp30.maze.GameObject-backto-nz.ac.vuw.ecs.swen225.gp30.maze.Actor" style="stroke: #A80036; stroke-width: 1.0; stroke-dasharray: 7.0,7.0;"/><polygon fill="none" points="100.5,117.2,107.5,97.2,114.5,117.2,100.5,117.2" style="stroke: #A80036; stroke-width: 1.0;"/><text fill="#888888" font-family="sans-serif" font-size="10" lengthAdjust="spacingAndGlyphs" textLength="185" x="11" y="347.2559">UMLDoclet 2.0.12, PlantUML 1.2020.16</text><!--MD5=[a58d997712e89c9fa8ab1a1720bcd46b]
@startuml
    set namespaceSeparator none
    hide empty fields
    hide empty methods

    abstract class "<size:14>Actor\n<size:10>nz.ac.vuw.ecs.swen225.gp30.maze" as nz.ac.vuw.ecs.swen225.gp30.maze.Actor [[Actor.html]] {
        #x: int
        #y: int
        #dir: Move
        +Actor(int, int)
        +getX(): int
        +getY(): int
        +setAt(int, int): void
        +setDirection(Move): void
    }

    interface "<size:14>GameObject\n<size:10>nz.ac.vuw.ecs.swen225.gp30.maze" as nz.ac.vuw.ecs.swen225.gp30.maze.GameObject [[GameObject.html]] {
        {abstract} +getX(): int
        {abstract} +getY(): int
        {abstract} +getImageString(): String
    }

    nz.ac.vuw.ecs.swen225.gp30.maze.GameObject <|.. nz.ac.vuw.ecs.swen225.gp30.maze.Actor

    center footer UMLDoclet 2.0.12, PlantUML 1.2020.16
@enduml

PlantUML version 1.2020.16(Mon Aug 24 08:20:43 NZST 2020)
(APACHE source distribution)
Java Runtime: Java(TM) SE Runtime Environment
JVM: Java HotSpot(TM) 64-Bit Server VM
Default Encoding: Cp1252
Language: en
Country: NZ
--></g></svg>