<?xml version="1.0" encoding="UTF-8" standalone="no"?><svg xmlns="http://www.w3.org/2000/svg" xmlns:xlink="http://www.w3.org/1999/xlink" contentScriptType="application/ecmascript" contentStyleType="text/css" height="335px" preserveAspectRatio="none" style="width:229px;height:335px;" version="1.1" viewBox="0 0 229 335" width="229px" zoomAndPan="magnify"><defs><filter height="300%" id="fmdupn67xwl1q" width="300%" x="-1" y="-1"><feGaussianBlur result="blurOut" stdDeviation="2.0"/><feColorMatrix in="blurOut" result="blurOut2" type="matrix" values="0 0 0 0 0 0 0 0 0 0 0 0 0 0 0 0 0 0 .4 0"/><feOffset dx="4.0" dy="4.0" in="blurOut2" result="blurOut3"/><feBlend in="SourceGraphic" in2="blurOut3" mode="normal"/></filter></defs><g><!--MD5=[43f815399c4c9ff46bd1458868e51a1e]
class nz.ac.vuw.ecs.swen225.gp30.maze.GameWorld--><a href="GameWorld.html" target="_top" title="GameWorld.html" xlink:actuate="onRequest" xlink:href="GameWorld.html" xlink:show="new" xlink:title="GameWorld.html" xlink:type="simple"><rect codeLine="5" fill="#FEFECE" filter="url(#fmdupn67xwl1q)" height="297.2344" id="nz.ac.vuw.ecs.swen225.gp30.maze.GameWorld" style="stroke: #A80036; stroke-width: 1.5;" width="203" x="7" y="7"/><ellipse cx="24.7" cy="27.0938" fill="#ADD1B2" rx="11" ry="11" style="stroke: #A80036; stroke-width: 1.0;"/><path d="M27.4656,22.9688 Q27.6219,22.75 27.8094,22.6406 Q27.9969,22.5313 28.2156,22.5313 Q28.5906,22.5313 28.825,22.7969 Q29.0594,23.0469 29.0594,23.6563 L29.0594,25.1094 Q29.0594,25.7188 28.825,25.9844 Q28.5906,26.25 28.2156,26.25 Q27.8719,26.25 27.6688,26.0469 Q27.4656,25.8594 27.3563,25.3438 Q27.3094,24.9844 27.1219,24.7969 Q26.7938,24.4219 26.1844,24.2031 Q25.575,23.9844 24.95,23.9844 Q24.1844,23.9844 23.5438,24.3125 Q22.9188,24.6406 22.4188,25.3906 Q21.9344,26.1406 21.9344,27.1719 L21.9344,28.2656 Q21.9344,29.5 22.825,30.3281 Q23.7156,31.1406 25.3094,31.1406 Q26.2469,31.1406 26.9031,30.8906 Q27.2938,30.7344 27.7156,30.2969 Q27.9813,30.0313 28.1219,29.9531 Q28.2781,29.875 28.4813,29.875 Q28.8094,29.875 29.0594,30.1406 Q29.325,30.3906 29.325,30.7344 Q29.325,31.0781 28.9813,31.4844 Q28.4813,32.0625 27.6844,32.3906 Q26.6063,32.8438 25.3094,32.8438 Q23.7938,32.8438 22.5906,32.2188 Q21.6063,31.7188 20.9188,30.6563 Q20.2313,29.5781 20.2313,28.2969 L20.2313,27.1406 Q20.2313,25.8125 20.8406,24.6719 Q21.4656,23.5156 22.5594,22.9063 Q23.6531,22.2813 24.8875,22.2813 Q25.6219,22.2813 26.2625,22.4531 Q26.9188,22.6094 27.4656,22.9688 Z "/><text fill="#000000" font-family="sans-serif" font-size="14" lengthAdjust="spacingAndGlyphs" textLength="76" x="83.8" y="26.5332">GameWorld</text><text fill="#000000" font-family="sans-serif" font-size="10" lengthAdjust="spacingAndGlyphs" textLength="165" x="39.3" y="39.9902">nz.ac.vuw.ecs.swen225.gp30.maze</text><line style="stroke: #A80036; stroke-width: 1.5;" x1="8" x2="209" y1="47.1875" y2="47.1875"/><ellipse cx="18" cy="58.1875" fill="#84BE84" rx="3" ry="3" style="stroke: #038048; stroke-width: 1.0;"/><text fill="#000000" font-family="sans-serif" font-size="11" lengthAdjust="spacingAndGlyphs" textLength="125" x="27" y="62.6064">GameWorld(Maze, Chap)</text><ellipse cx="18" cy="72.0234" fill="#84BE84" rx="3" ry="3" style="stroke: #038048; stroke-width: 1.0;"/><text fill="#000000" font-family="sans-serif" font-size="11" lengthAdjust="spacingAndGlyphs" textLength="114" x="27" y="76.4424">moveChap(Move): void</text><ellipse cx="18" cy="85.8594" fill="#84BE84" rx="3" ry="3" style="stroke: #038048; stroke-width: 1.0;"/><text fill="#000000" font-family="sans-serif" font-size="11" lengthAdjust="spacingAndGlyphs" textLength="82" x="27" y="90.2783">getTimeLeft(): int</text><ellipse cx="18" cy="99.6953" fill="#84BE84" rx="3" ry="3" style="stroke: #038048; stroke-width: 1.0;"/><text fill="#000000" font-family="sans-serif" font-size="11" lengthAdjust="spacingAndGlyphs" textLength="128" x="27" y="104.1143">decrementTimeLeft(): void</text><ellipse cx="18" cy="113.5313" fill="#84BE84" rx="3" ry="3" style="stroke: #038048; stroke-width: 1.0;"/><text fill="#000000" font-family="sans-serif" font-size="11" lengthAdjust="spacingAndGlyphs" textLength="102" x="27" y="117.9502">setTimeLeft(int): void</text><ellipse cx="18" cy="127.3672" fill="#84BE84" rx="3" ry="3" style="stroke: #038048; stroke-width: 1.0;"/><text fill="#000000" font-family="sans-serif" font-size="11" lengthAdjust="spacingAndGlyphs" textLength="76" x="27" y="131.7861">advance(): void</text><ellipse cx="18" cy="141.2031" fill="#84BE84" rx="3" ry="3" style="stroke: #038048; stroke-width: 1.0;"/><text fill="#000000" font-family="sans-serif" font-size="11" lengthAdjust="spacingAndGlyphs" textLength="86" x="27" y="145.6221">getChipsLeft(): int</text><ellipse cx="18" cy="155.0391" fill="#84BE84" rx="3" ry="3" style="stroke: #038048; stroke-width: 1.0;"/><text fill="#000000" font-family="sans-serif" font-size="11" lengthAdjust="spacingAndGlyphs" textLength="119" x="27" y="159.458">isChapOnInfo(): boolean</text><ellipse cx="18" cy="168.875" fill="#84BE84" rx="3" ry="3" style="stroke: #038048; stroke-width: 1.0;"/><text fill="#000000" font-family="sans-serif" font-size="11" lengthAdjust="spacingAndGlyphs" textLength="119" x="27" y="173.2939">isChapOnExit(): boolean</text><ellipse cx="18" cy="182.7109" fill="#84BE84" rx="3" ry="3" style="stroke: #038048; stroke-width: 1.0;"/><text fill="#000000" font-family="sans-serif" font-size="11" lengthAdjust="spacingAndGlyphs" textLength="116" x="27" y="187.1299">isChapActive(): boolean</text><ellipse cx="18" cy="196.5469" fill="#84BE84" rx="3" ry="3" style="stroke: #038048; stroke-width: 1.0;"/><text fill="#000000" font-family="sans-serif" font-size="11" lengthAdjust="spacingAndGlyphs" textLength="101" x="27" y="200.9658">setChap(Chap): void</text><ellipse cx="18" cy="210.3828" fill="#84BE84" rx="3" ry="3" style="stroke: #038048; stroke-width: 1.0;"/><text fill="#000000" font-family="sans-serif" font-size="11" lengthAdjust="spacingAndGlyphs" textLength="81" x="27" y="214.8018">getChap(): Chap</text><ellipse cx="18" cy="224.2188" fill="#84BE84" rx="3" ry="3" style="stroke: #038048; stroke-width: 1.0;"/><text fill="#000000" font-family="sans-serif" font-size="11" lengthAdjust="spacingAndGlyphs" textLength="103" x="27" y="228.6377">setMaze(Maze): void</text><ellipse cx="18" cy="238.0547" fill="#84BE84" rx="3" ry="3" style="stroke: #038048; stroke-width: 1.0;"/><text fill="#000000" font-family="sans-serif" font-size="11" lengthAdjust="spacingAndGlyphs" textLength="83" x="27" y="242.4736">getMaze(): Maze</text><ellipse cx="18" cy="251.8906" fill="#84BE84" rx="3" ry="3" style="stroke: #038048; stroke-width: 1.0;"/><text fill="#000000" font-family="sans-serif" font-size="11" lengthAdjust="spacingAndGlyphs" textLength="177" x="27" y="256.3096">setMobManager(MobManager): void</text><ellipse cx="18" cy="265.7266" fill="#84BE84" rx="3" ry="3" style="stroke: #038048; stroke-width: 1.0;"/><text fill="#000000" font-family="sans-serif" font-size="11" lengthAdjust="spacingAndGlyphs" textLength="157" x="27" y="270.1455">getMobManager(): MobManager</text><ellipse cx="18" cy="279.5625" fill="#84BE84" rx="3" ry="3" style="stroke: #038048; stroke-width: 1.0;"/><text fill="#000000" font-family="sans-serif" font-size="11" lengthAdjust="spacingAndGlyphs" textLength="121" x="27" y="283.9814">setLevelInfo(String): void</text><ellipse cx="18" cy="293.3984" fill="#84BE84" rx="3" ry="3" style="stroke: #038048; stroke-width: 1.0;"/><text fill="#000000" font-family="sans-serif" font-size="11" lengthAdjust="spacingAndGlyphs" textLength="101" x="27" y="297.8174">getLevelInfo(): String</text></a><text fill="#888888" font-family="sans-serif" font-size="10" lengthAdjust="spacingAndGlyphs" textLength="185" x="16" y="321.6152">UMLDoclet 2.0.12, PlantUML 1.2020.16</text><!--MD5=[498b9acfa138e96be4247a964e923c8b]
@startuml
    set namespaceSeparator none
    hide empty fields
    hide empty methods

    class "<size:14>GameWorld\n<size:10>nz.ac.vuw.ecs.swen225.gp30.maze" as nz.ac.vuw.ecs.swen225.gp30.maze.GameWorld [[GameWorld.html]] {
        +GameWorld(Maze, Chap)
        +moveChap(Move): void
        +getTimeLeft(): int
        +decrementTimeLeft(): void
        +setTimeLeft(int): void
        +advance(): void
        +getChipsLeft(): int
        +isChapOnInfo(): boolean
        +isChapOnExit(): boolean
        +isChapActive(): boolean
        +setChap(Chap): void
        +getChap(): Chap
        +setMaze(Maze): void
        +getMaze(): Maze
        +setMobManager(MobManager): void
        +getMobManager(): MobManager
        +setLevelInfo(String): void
        +getLevelInfo(): String
    }

    center footer UMLDoclet 2.0.12, PlantUML 1.2020.16
@enduml

PlantUML version 1.2020.16(Mon Aug 24 08:20:43 NZST 2020)
(APACHE source distribution)
Java Runtime: Java(TM) SE Runtime Environment
JVM: Java HotSpot(TM) 64-Bit Server VM
Default Encoding: Cp1252
Language: en
Country: NZ
--></g></svg>