<?xml version="1.0" encoding="UTF-8" standalone="no"?><svg xmlns="http://www.w3.org/2000/svg" xmlns:xlink="http://www.w3.org/1999/xlink" contentScriptType="application/ecmascript" contentStyleType="text/css" height="127px" preserveAspectRatio="none" style="width:223px;height:127px;" version="1.1" viewBox="0 0 223 127" width="223px" zoomAndPan="magnify"><defs><filter height="300%" id="foa8qesfx1rwi" width="300%" x="-1" y="-1"><feGaussianBlur result="blurOut" stdDeviation="2.0"/><feColorMatrix in="blurOut" result="blurOut2" type="matrix" values="0 0 0 0 0 0 0 0 0 0 0 0 0 0 0 0 0 0 .4 0"/><feOffset dx="4.0" dy="4.0" in="blurOut2" result="blurOut3"/><feBlend in="SourceGraphic" in2="blurOut3" mode="normal"/></filter></defs><g><!--MD5=[342bfcf57e9e19ef468d50b7455618f2]
class nz.ac.vuw.ecs.swen225.gp30.maze.GameObject--><a href="GameObject.html" target="_top" title="GameObject.html" xlink:actuate="onRequest" xlink:href="GameObject.html" xlink:show="new" xlink:title="GameObject.html" xlink:type="simple"><rect codeLine="5" fill="#FEFECE" filter="url(#foa8qesfx1rwi)" height="89.6953" id="nz.ac.vuw.ecs.swen225.gp30.maze.GameObject" style="stroke: #A80036; stroke-width: 1.5;" width="197" x="7" y="7"/><ellipse cx="22" cy="27.0938" fill="#B4A7E5" rx="11" ry="11" style="stroke: #A80036; stroke-width: 1.0;"/><path d="M22.9531,23.7344 L22.9531,30.3906 L24.6719,30.3906 Q25.2813,30.3906 25.5469,30.625 Q25.8125,30.8594 25.8125,31.25 Q25.8125,31.625 25.5469,31.8594 Q25.2813,32.0938 24.6719,32.0938 L19.5313,32.0938 Q18.9219,32.0938 18.6563,31.8594 Q18.3906,31.625 18.3906,31.2344 Q18.3906,30.8594 18.6563,30.625 Q18.9219,30.3906 19.5313,30.3906 L21.25,30.3906 L21.25,23.7344 L19.5313,23.7344 Q18.9219,23.7344 18.6563,23.5 Q18.3906,23.2656 18.3906,22.875 Q18.3906,22.5 18.6563,22.2656 Q18.9219,22.0313 19.5313,22.0313 L24.6719,22.0313 Q25.2813,22.0313 25.5469,22.2656 Q25.8125,22.5 25.8125,22.875 Q25.8125,23.2656 25.5469,23.5 Q25.2813,23.7344 24.6719,23.7344 L22.9531,23.7344 Z "/><text fill="#000000" font-family="sans-serif" font-size="14" font-style="italic" lengthAdjust="spacingAndGlyphs" textLength="80" x="78.5" y="26.5332">GameObject</text><text fill="#000000" font-family="sans-serif" font-size="10" font-style="italic" lengthAdjust="spacingAndGlyphs" textLength="165" x="36" y="39.9902">nz.ac.vuw.ecs.swen225.gp30.maze</text><line style="stroke: #A80036; stroke-width: 1.5;" x1="8" x2="203" y1="47.1875" y2="47.1875"/><ellipse cx="18" cy="58.1875" fill="#84BE84" rx="3" ry="3" style="stroke: #038048; stroke-width: 1.0;"/><text fill="#000000" font-family="sans-serif" font-size="11" font-style="italic" lengthAdjust="spacingAndGlyphs" textLength="47" x="27" y="62.6064">getX(): int</text><ellipse cx="18" cy="72.0234" fill="#84BE84" rx="3" ry="3" style="stroke: #038048; stroke-width: 1.0;"/><text fill="#000000" font-family="sans-serif" font-size="11" font-style="italic" lengthAdjust="spacingAndGlyphs" textLength="47" x="27" y="76.4424">getY(): int</text><ellipse cx="18" cy="85.8594" fill="#84BE84" rx="3" ry="3" style="stroke: #038048; stroke-width: 1.0;"/><text fill="#000000" font-family="sans-serif" font-size="11" font-style="italic" lengthAdjust="spacingAndGlyphs" textLength="115" x="27" y="90.2783">getImageString(): String</text></a><text fill="#888888" font-family="sans-serif" font-size="10" lengthAdjust="spacingAndGlyphs" textLength="185" x="13" y="114.0762">UMLDoclet 2.0.12, PlantUML 1.2020.16</text><!--MD5=[370d19d9066b641ed2c92106791084ad]
@startuml
    set namespaceSeparator none
    hide empty fields
    hide empty methods

    interface "<size:14>GameObject\n<size:10>nz.ac.vuw.ecs.swen225.gp30.maze" as nz.ac.vuw.ecs.swen225.gp30.maze.GameObject [[GameObject.html]] {
        {abstract} +getX(): int
        {abstract} +getY(): int
        {abstract} +getImageString(): String
    }

    center footer UMLDoclet 2.0.12, PlantUML 1.2020.16
@enduml

PlantUML version 1.2020.16(Mon Aug 24 08:20:43 NZST 2020)
(APACHE source distribution)
Java Runtime: Java(TM) SE Runtime Environment
JVM: Java HotSpot(TM) 64-Bit Server VM
Default Encoding: Cp1252
Language: en
Country: NZ
--></g></svg>