<?xml version="1.0" encoding="UTF-8" standalone="no"?><svg xmlns="http://www.w3.org/2000/svg" xmlns:xlink="http://www.w3.org/1999/xlink" contentScriptType="application/ecmascript" contentStyleType="text/css" height="196px" preserveAspectRatio="none" style="width:251px;height:196px;" version="1.1" viewBox="0 0 251 196" width="251px" zoomAndPan="magnify"><defs><filter height="300%" id="f1tjwfc2akua35" width="300%" x="-1" y="-1"><feGaussianBlur result="blurOut" stdDeviation="2.0"/><feColorMatrix in="blurOut" result="blurOut2" type="matrix" values="0 0 0 0 0 0 0 0 0 0 0 0 0 0 0 0 0 0 .4 0"/><feOffset dx="4.0" dy="4.0" in="blurOut2" result="blurOut3"/><feBlend in="SourceGraphic" in2="blurOut3" mode="normal"/></filter></defs><g><!--MD5=[179f0326406d88890c976ad98cf75dd0]
class nz.ac.vuw.ecs.swen225.gp30.maze.Maze--><a href="Maze.html" target="_top" title="Maze.html" xlink:actuate="onRequest" xlink:href="Maze.html" xlink:show="new" xlink:title="Maze.html" xlink:type="simple"><rect codeLine="5" fill="#FEFECE" filter="url(#f1tjwfc2akua35)" height="158.875" id="nz.ac.vuw.ecs.swen225.gp30.maze.Maze" style="stroke: #A80036; stroke-width: 1.5;" width="225" x="7" y="7"/><ellipse cx="34.6" cy="27.0938" fill="#ADD1B2" rx="11" ry="11" style="stroke: #A80036; stroke-width: 1.0;"/><path d="M37.3656,22.9688 Q37.5219,22.75 37.7094,22.6406 Q37.8969,22.5313 38.1156,22.5313 Q38.4906,22.5313 38.725,22.7969 Q38.9594,23.0469 38.9594,23.6563 L38.9594,25.1094 Q38.9594,25.7188 38.725,25.9844 Q38.4906,26.25 38.1156,26.25 Q37.7719,26.25 37.5688,26.0469 Q37.3656,25.8594 37.2563,25.3438 Q37.2094,24.9844 37.0219,24.7969 Q36.6938,24.4219 36.0844,24.2031 Q35.475,23.9844 34.85,23.9844 Q34.0844,23.9844 33.4438,24.3125 Q32.8188,24.6406 32.3188,25.3906 Q31.8344,26.1406 31.8344,27.1719 L31.8344,28.2656 Q31.8344,29.5 32.725,30.3281 Q33.6156,31.1406 35.2094,31.1406 Q36.1469,31.1406 36.8031,30.8906 Q37.1938,30.7344 37.6156,30.2969 Q37.8813,30.0313 38.0219,29.9531 Q38.1781,29.875 38.3813,29.875 Q38.7094,29.875 38.9594,30.1406 Q39.225,30.3906 39.225,30.7344 Q39.225,31.0781 38.8813,31.4844 Q38.3813,32.0625 37.5844,32.3906 Q36.5063,32.8438 35.2094,32.8438 Q33.6938,32.8438 32.4906,32.2188 Q31.5063,31.7188 30.8188,30.6563 Q30.1313,29.5781 30.1313,28.2969 L30.1313,27.1406 Q30.1313,25.8125 30.7406,24.6719 Q31.3656,23.5156 32.4594,22.9063 Q33.5531,22.2813 34.7875,22.2813 Q35.5219,22.2813 36.1625,22.4531 Q36.8188,22.6094 37.3656,22.9688 Z "/><text fill="#000000" font-family="sans-serif" font-size="14" lengthAdjust="spacingAndGlyphs" textLength="35" x="116.4" y="26.5332">Maze</text><text fill="#000000" font-family="sans-serif" font-size="10" lengthAdjust="spacingAndGlyphs" textLength="165" x="51.4" y="39.9902">nz.ac.vuw.ecs.swen225.gp30.maze</text><line style="stroke: #A80036; stroke-width: 1.5;" x1="8" x2="231" y1="47.1875" y2="47.1875"/><ellipse cx="18" cy="58.1875" fill="#84BE84" rx="3" ry="3" style="stroke: #038048; stroke-width: 1.0;"/><text fill="#000000" font-family="sans-serif" font-size="11" lengthAdjust="spacingAndGlyphs" textLength="63" x="27" y="62.6064">Maze(int, int)</text><ellipse cx="18" cy="72.0234" fill="#84BE84" rx="3" ry="3" style="stroke: #038048; stroke-width: 1.0;"/><text fill="#000000" font-family="sans-serif" font-size="11" lengthAdjust="spacingAndGlyphs" textLength="127" x="27" y="76.4424">setTileAt(int, int, Tile): void</text><ellipse cx="18" cy="85.8594" fill="#84BE84" rx="3" ry="3" style="stroke: #038048; stroke-width: 1.0;"/><text fill="#000000" font-family="sans-serif" font-size="11" lengthAdjust="spacingAndGlyphs" textLength="101" x="27" y="90.2783">getTileAt(int, int): Tile</text><ellipse cx="18" cy="99.6953" fill="#84BE84" rx="3" ry="3" style="stroke: #038048; stroke-width: 1.0;"/><text fill="#000000" font-family="sans-serif" font-size="11" lengthAdjust="spacingAndGlyphs" textLength="199" x="27" y="104.1143">getNewTileFromMove(Move, int, int): Tile</text><ellipse cx="18" cy="113.5313" fill="#84BE84" rx="3" ry="3" style="stroke: #038048; stroke-width: 1.0;"/><text fill="#000000" font-family="sans-serif" font-size="11" lengthAdjust="spacingAndGlyphs" textLength="116" x="27" y="117.9502">getTiles(): Stream&lt;Tile&gt;</text><ellipse cx="18" cy="127.3672" fill="#84BE84" rx="3" ry="3" style="stroke: #038048; stroke-width: 1.0;"/><text fill="#000000" font-family="sans-serif" font-size="11" lengthAdjust="spacingAndGlyphs" textLength="68" x="27" y="131.7861">getRows(): int</text><ellipse cx="18" cy="141.2031" fill="#84BE84" rx="3" ry="3" style="stroke: #038048; stroke-width: 1.0;"/><text fill="#000000" font-family="sans-serif" font-size="11" lengthAdjust="spacingAndGlyphs" textLength="62" x="27" y="145.6221">getCols(): int</text><ellipse cx="18" cy="155.0391" fill="#84BE84" rx="3" ry="3" style="stroke: #038048; stroke-width: 1.0;"/><text fill="#000000" font-family="sans-serif" font-size="11" lengthAdjust="spacingAndGlyphs" textLength="117" x="27" y="159.458">toString(boolean): String</text></a><text fill="#888888" font-family="sans-serif" font-size="10" lengthAdjust="spacingAndGlyphs" textLength="185" x="27" y="183.2559">UMLDoclet 2.0.12, PlantUML 1.2020.16</text><!--MD5=[fc334d868dd961ae999f2f88e794bf61]
@startuml
    set namespaceSeparator none
    hide empty fields
    hide empty methods

    class "<size:14>Maze\n<size:10>nz.ac.vuw.ecs.swen225.gp30.maze" as nz.ac.vuw.ecs.swen225.gp30.maze.Maze [[Maze.html]] {
        +Maze(int, int)
        +setTileAt(int, int, Tile): void
        +getTileAt(int, int): Tile
        +getNewTileFromMove(Move, int, int): Tile
        +getTiles(): Stream<Tile>
        +getRows(): int
        +getCols(): int
        +toString(boolean): String
    }

    center footer UMLDoclet 2.0.12, PlantUML 1.2020.16
@enduml

PlantUML version 1.2020.16(Mon Aug 24 08:20:43 NZST 2020)
(APACHE source distribution)
Java Runtime: Java(TM) SE Runtime Environment
JVM: Java HotSpot(TM) 64-Bit Server VM
Default Encoding: Cp1252
Language: en
Country: NZ
--></g></svg>